  0
SECTION
  2
HEADER
  9
$ACADVER
  1
AC1014
  9
$HANDSEED
  5
FFFF
  9
$MEASUREMENT
 70
     1
  0
ENDSEC
  0
SECTION
  2
TABLES
  0
TABLE
  2
VPORT
  5
8
330
0
100
AcDbSymbolTable
 70
     4
  0
VPORT
  5
2E
330
8
100
AcDbSymbolTableRecord
100
AcDbViewportTableRecord
  2
*ACTIVE
 70
     0
 10
0.0
 20
0.0
 11
1.0
 21
1.0
 12
210.0
 22
148.5
 13
0.0
 23
0.0
 14
10.0
 24
10.0
 15
10.0
 25
10.0
 16
0.0
 26
0.0
 36
1.0
 17
0.0
 27
0.0
 37
0.0
 40
341.0
 41
1.24
 42
50.0
 43
0.0
 44
0.0
 50
0.0
 51
0.0
 71
     0
 72
   100
 73
     1
 74
     3
 75
     0
 76
     0
 77
     0
 78
     0
  0
ENDTAB
  0
TABLE
  2
LTYPE
  5
5
330
0
100
AcDbSymbolTable
 70
     1
  0
LTYPE
  5
14
330
5
100
AcDbSymbolTableRecord
100
AcDbLinetypeTableRecord
  2
BYBLOCK
 70
     0
  3

 72
    65
 73
     0
 40
0.0
  0
LTYPE
  5
15
330
5
100
AcDbSymbolTableRecord
100
AcDbLinetypeTableRecord
  2
BYLAYER
 70
     0
  3

 72
    65
 73
     0
 40
0.0
  0
LTYPE
  5
16
330
5
100
AcDbSymbolTableRecord
100
AcDbLinetypeTableRecord
  2
CONTINUOUS
 70
     0
  3
Solid line
 72
    65
 73
     0
 40
0.0
  0
ENDTAB
  0
TABLE
  2
LAYER
  5
2
100
AcDbSymbolTable
 70
2
  0
LAYER
  5
50
100
AcDbSymbolTableRecord
100
AcDbLayerTableRecord
  2
0
 70
0
  6
CONTINUOUS
  0
LAYER
  5
51
100
AcDbSymbolTableRecord
100
AcDbLayerTableRecord
  2
CUT
 70
0
  6
CONTINUOUS
  0
ENDTAB
  0
TABLE
  2
STYLE
  5
3
330
0
100
AcDbSymbolTable
 70
     1
  0
STYLE
  5
11
330
3
100
AcDbSymbolTableRecord
100
AcDbTextStyleTableRecord
  2
STANDARD
 70
     0
 40
0.0
 41
1.0
 50
0.0
 71
     0
 42
2.5
  3
txt
  4

  0
ENDTAB
  0
TABLE
  2
VIEW
  5
6
330
0
100
AcDbSymbolTable
 70
     0
  0
ENDTAB
  0
TABLE
  2
UCS
  5
7
330
0
100
AcDbSymbolTable
 70
     0
  0
ENDTAB
  0
TABLE
  2
APPID
  5
9
330
0
100
AcDbSymbolTable
 70
     2
  0
APPID
  5
12
330
9
100
AcDbSymbolTableRecord
100
AcDbRegAppTableRecord
  2
ACAD
 70
     0
  0
ENDTAB
  0
TABLE
  2
DIMSTYLE
  5
A
330
0
100
AcDbSymbolTable
 70
     1
  0
DIMSTYLE
105
27
330
A
100
AcDbSymbolTableRecord
100
AcDbDimStyleTableRecord
  2
ISO-25
 70
     0
  3

  4

  5

  6

  7

 40
1.0
 41
2.5
 42
0.625
 43
3.75
 44
1.25
 45
0.0
 46
0.0
 47
0.0
 48
0.0
140
2.5
141
2.5
142
0.0
143
0.03937007874016
144
1.0
145
0.0
146
1.0
147
0.625
 71
     0
 72
     0
 73
     0
 74
     0
 75
     0
 76
     0
 77
     1
 78
     8
170
     0
171
     3
172
     1
173
     0
174
     0
175
     0
176
     0
177
     0
178
     0
270
     2
271
     2
272
     2
273
     2
274
     3
340
11
275
     0
280
     0
281
     0
282
     0
283
     0
284
     8
285
     0
286
     0
287
     3
288
     0
  0
ENDTAB
  0
TABLE
  2
BLOCK_RECORD
  5
1
330
0
100
AcDbSymbolTable
 70
     1
  0
BLOCK_RECORD
  5
1F
330
1
100
AcDbSymbolTableRecord
100
AcDbBlockTableRecord
  2
*MODEL_SPACE
  0
BLOCK_RECORD
  5
1B
330
1
100
AcDbSymbolTableRecord
100
AcDbBlockTableRecord
  2
*PAPER_SPACE
  0
ENDTAB
  0
ENDSEC
  0
SECTION
  2
BLOCKS
  0
BLOCK
  5
20
330
1F
100
AcDbEntity
  8
0
100
AcDbBlockBegin
  2
*MODEL_SPACE
 70
     0
 10
0.0
 20
0.0
 30
0.0
  3
*MODEL_SPACE
  1

  0
ENDBLK
  5
21
330
1F
100
AcDbEntity
  8
0
100
AcDbBlockEnd
  0
BLOCK
  5
1C
330
1B
100
AcDbEntity
 67
     1
  8
0
100
AcDbBlockBegin
  2
*PAPER_SPACE
  1

  0
ENDBLK
  5
1D
330
1B
100
AcDbEntity
 67
     1
  8
0
100
AcDbBlockEnd
  0
ENDSEC
  0
SECTION
  2
ENTITIES
  0
LWPOLYLINE
  5
100
100
AcDbEntity
  8
CUT
 62
1
100
AcDbPolyline
 90
253
 70
1
 10
0.482305
 20
634.005368
 30
0.0
 10
0.482305
 20
654.165367
 30
0.0
 10
30.731904
 20
654.165367
 30
0.0
 10
30.731904
 20
634.005368
 30
0.0
 10
48.991103
 20
634.005368
 30
0.0
 10
48.991103
 20
654.165367
 30
0.0
 10
69.170302
 20
654.165367
 30
0.0
 10
69.170302
 20
634.005368
 30
0.0
 10
87.429501
 20
634.005368
 30
0.0
 10
87.429501
 20
654.165367
 30
0.0
 10
107.608663
 20
654.165367
 30
0.0
 10
107.608663
 20
634.005368
 30
0.0
 10
125.867899
 20
634.005368
 30
0.0
 10
125.867899
 20
654.165367
 30
0.0
 10
146.047061
 20
654.165367
 30
0.0
 10
146.047061
 20
634.005368
 30
0.0
 10
164.306298
 20
634.005368
 30
0.0
 10
164.306298
 20
654.165367
 30
0.0
 10
184.485497
 20
654.165367
 30
0.0
 10
184.485497
 20
634.005368
 30
0.0
 10
202.744658
 20
634.005368
 30
0.0
 10
202.744658
 20
654.165367
 30
0.0
 10
222.923895
 20
654.165367
 30
0.0
 10
222.923895
 20
634.005368
 30
0.0
 10
241.183056
 20
634.005368
 30
0.0
 10
241.183056
 20
654.165367
 30
0.0
 10
261.362293
 20
654.165367
 30
0.0
 10
261.362293
 20
634.005368
 30
0.0
 10
279.621492
 20
634.005368
 30
0.0
 10
279.621492
 20
654.165367
 30
0.0
 10
299.800691
 20
654.165367
 30
0.0
 10
299.800691
 20
634.005368
 30
0.0
 10
318.059890
 20
634.005368
 30
0.0
 10
318.059890
 20
654.165367
 30
0.0
 10
338.239051
 20
654.165367
 30
0.0
 10
338.239051
 20
634.005368
 30
0.0
 10
356.498288
 20
634.005368
 30
0.0
 10
356.498288
 20
654.165367
 30
0.0
 10
376.677450
 20
654.165367
 30
0.0
 10
376.677450
 20
634.005368
 30
0.0
 10
394.936649
 20
634.005368
 30
0.0
 10
394.936649
 20
654.165367
 30
0.0
 10
415.115886
 20
654.165367
 30
0.0
 10
415.115886
 20
634.005368
 30
0.0
 10
433.375047
 20
634.005368
 30
0.0
 10
433.375047
 20
654.165367
 30
0.0
 10
453.554284
 20
654.165367
 30
0.0
 10
453.554284
 20
634.005368
 30
0.0
 10
471.813445
 20
634.005368
 30
0.0
 10
471.813445
 20
654.165367
 30
0.0
 10
491.992682
 20
654.165367
 30
0.0
 10
491.992682
 20
634.005368
 30
0.0
 10
510.251881
 20
634.005368
 30
0.0
 10
510.251881
 20
654.165367
 30
0.0
 10
530.431042
 20
654.165367
 30
0.0
 10
530.431042
 20
634.005368
 30
0.0
 10
548.690279
 20
634.005368
 30
0.0
 10
548.690279
 20
654.165367
 30
0.0
 10
568.869440
 20
654.165367
 30
0.0
 10
568.869440
 20
634.005368
 30
0.0
 10
587.128677
 20
634.005368
 30
0.0
 10
587.128677
 20
654.165367
 30
0.0
 10
607.307838
 20
654.165367
 30
0.0
 10
607.307838
 20
634.005368
 30
0.0
 10
625.567038
 20
634.005368
 30
0.0
 10
625.567038
 20
654.165367
 30
0.0
 10
645.746237
 20
654.165367
 30
0.0
 10
645.746237
 20
634.005368
 30
0.0
 10
664.005436
 20
634.005368
 30
0.0
 10
664.005436
 20
654.165367
 30
0.0
 10
684.184635
 20
654.165367
 30
0.0
 10
684.184635
 20
634.005368
 30
0.0
 10
702.443834
 20
634.005368
 30
0.0
 10
702.443834
 20
654.165367
 30
0.0
 10
722.623033
 20
654.165367
 30
0.0
 10
722.623033
 20
634.005368
 30
0.0
 10
740.882232
 20
634.005368
 30
0.0
 10
740.882232
 20
654.165367
 30
0.0
 10
761.061431
 20
654.165367
 30
0.0
 10
761.061431
 20
634.005368
 30
0.0
 10
779.320630
 20
634.005368
 30
0.0
 10
779.320630
 20
654.165367
 30
0.0
 10
799.499829
 20
654.165367
 30
0.0
 10
799.499829
 20
634.005368
 30
0.0
 10
817.759028
 20
634.005368
 30
0.0
 10
817.759028
 20
654.165367
 30
0.0
 10
837.938227
 20
654.165367
 30
0.0
 10
837.938227
 20
634.005368
 30
0.0
 10
856.197426
 20
634.005368
 30
0.0
 10
856.197426
 20
654.165367
 30
0.0
 10
876.376626
 20
654.165367
 30
0.0
 10
876.376626
 20
634.005368
 30
0.0
 10
894.635825
 20
634.005368
 30
0.0
 10
894.635825
 20
654.165367
 30
0.0
 10
914.815024
 20
654.165367
 30
0.0
 10
914.815024
 20
634.005368
 30
0.0
 10
933.074223
 20
634.005368
 30
0.0
 10
933.074223
 20
654.165367
 30
0.0
 10
953.253422
 20
654.165367
 30
0.0
 10
953.253422
 20
634.005368
 30
0.0
 10
971.512621
 20
634.005368
 30
0.0
 10
971.512621
 20
654.165367
 30
0.0
 10
1001.762219
 20
654.165367
 30
0.0
 10
1001.762219
 20
625.485368
 30
0.0
 10
981.602220
 20
625.485368
 30
0.0
 10
981.602220
 20
610.365369
 30
0.0
 10
1001.762219
 20
610.365369
 30
0.0
 10
1001.762219
 20
593.325370
 30
0.0
 10
981.602220
 20
593.325370
 30
0.0
 10
981.602220
 20
578.205371
 30
0.0
 10
1001.762219
 20
578.205371
 30
0.0
 10
1001.762219
 20
561.165371
 30
0.0
 10
981.602220
 20
561.165371
 30
0.0
 10
981.602220
 20
546.045372
 30
0.0
 10
1001.762219
 20
546.045372
 30
0.0
 10
1001.762219
 20
529.005373
 30
0.0
 10
981.602220
 20
529.005373
 30
0.0
 10
981.602220
 20
513.885374
 30
0.0
 10
1001.762219
 20
513.885374
 30
0.0
 10
1001.762219
 20
496.845374
 30
0.0
 10
981.602220
 20
496.845374
 30
0.0
 10
981.602220
 20
481.725375
 30
0.0
 10
1001.762219
 20
481.725375
 30
0.0
 10
1001.762219
 20
464.685376
 30
0.0
 10
981.602220
 20
464.685376
 30
0.0
 10
981.602220
 20
449.565377
 30
0.0
 10
1001.762219
 20
449.565377
 30
0.0
 10
1001.762219
 20
420.885378
 30
0.0
 10
971.512621
 20
420.885378
 30
0.0
 10
971.512621
 20
441.045377
 30
0.0
 10
953.253460
 20
441.045377
 30
0.0
 10
953.253460
 20
420.885378
 30
0.0
 10
933.074261
 20
420.885378
 30
0.0
 10
933.074261
 20
441.045377
 30
0.0
 10
914.815024
 20
441.045377
 30
0.0
 10
914.815024
 20
420.885378
 30
0.0
 10
894.635825
 20
420.885378
 30
0.0
 10
894.635825
 20
441.045377
 30
0.0
 10
876.376626
 20
441.045377
 30
0.0
 10
876.376626
 20
420.885378
 30
0.0
 10
856.197426
 20
420.885378
 30
0.0
 10
856.197426
 20
441.045377
 30
0.0
 10
837.938227
 20
441.045377
 30
0.0
 10
837.938227
 20
420.885378
 30
0.0
 10
817.759028
 20
420.885378
 30
0.0
 10
817.759028
 20
441.045377
 30
0.0
 10
799.499829
 20
441.045377
 30
0.0
 10
799.499829
 20
420.885378
 30
0.0
 10
779.320630
 20
420.885378
 30
0.0
 10
779.320630
 20
441.045377
 30
0.0
 10
761.061431
 20
441.045377
 30
0.0
 10
761.061431
 20
420.885378
 30
0.0
 10
740.882232
 20
420.885378
 30
0.0
 10
740.882232
 20
441.045377
 30
0.0
 10
722.623033
 20
441.045377
 30
0.0
 10
722.623033
 20
420.885378
 30
0.0
 10
702.443834
 20
420.885378
 30
0.0
 10
702.443834
 20
441.045377
 30
0.0
 10
684.184635
 20
441.045377
 30
0.0
 10
684.184635
 20
420.885378
 30
0.0
 10
664.005436
 20
420.885378
 30
0.0
 10
664.005436
 20
441.045377
 30
0.0
 10
645.746237
 20
441.045377
 30
0.0
 10
645.746237
 20
420.885378
 30
0.0
 10
625.567038
 20
420.885378
 30
0.0
 10
625.567038
 20
441.045377
 30
0.0
 10
607.307838
 20
441.045377
 30
0.0
 10
607.307838
 20
420.885378
 30
0.0
 10
587.128677
 20
420.885378
 30
0.0
 10
587.128677
 20
441.045377
 30
0.0
 10
568.869440
 20
441.045377
 30
0.0
 10
568.869440
 20
420.885378
 30
0.0
 10
548.690279
 20
420.885378
 30
0.0
 10
548.690279
 20
441.045377
 30
0.0
 10
530.431080
 20
441.045377
 30
0.0
 10
530.431080
 20
420.885378
 30
0.0
 10
510.251881
 20
420.885378
 30
0.0
 10
510.251881
 20
441.045377
 30
0.0
 10
491.992682
 20
441.045377
 30
0.0
 10
491.992682
 20
420.885378
 30
0.0
 10
471.813445
 20
420.885378
 30
0.0
 10
471.813445
 20
441.045377
 30
0.0
 10
453.554284
 20
441.045377
 30
0.0
 10
453.554284
 20
420.885378
 30
0.0
 10
433.375047
 20
420.885378
 30
0.0
 10
433.375047
 20
441.045377
 30
0.0
 10
415.115886
 20
441.045377
 30
0.0
 10
415.115886
 20
420.885378
 30
0.0
 10
394.936686
 20
420.885378
 30
0.0
 10
394.936686
 20
441.045377
 30
0.0
 10
376.677450
 20
441.045377
 30
0.0
 10
376.677450
 20
420.885378
 30
0.0
 10
356.498288
 20
420.885378
 30
0.0
 10
356.498288
 20
441.045377
 30
0.0
 10
338.239089
 20
441.045377
 30
0.0
 10
338.239089
 20
420.885378
 30
0.0
 10
318.059890
 20
420.885378
 30
0.0
 10
318.059890
 20
441.045377
 30
0.0
 10
299.800691
 20
441.045377
 30
0.0
 10
299.800691
 20
420.885378
 30
0.0
 10
279.621492
 20
420.885378
 30
0.0
 10
279.621492
 20
441.045377
 30
0.0
 10
261.362293
 20
441.045377
 30
0.0
 10
261.362293
 20
420.885378
 30
0.0
 10
241.183056
 20
420.885378
 30
0.0
 10
241.183056
 20
441.045377
 30
0.0
 10
222.923895
 20
441.045377
 30
0.0
 10
222.923895
 20
420.885378
 30
0.0
 10
202.744696
 20
420.885378
 30
0.0
 10
202.744696
 20
441.045377
 30
0.0
 10
184.485497
 20
441.045377
 30
0.0
 10
184.485497
 20
420.885378
 30
0.0
 10
164.306298
 20
420.885378
 30
0.0
 10
164.306298
 20
441.045377
 30
0.0
 10
146.047061
 20
441.045377
 30
0.0
 10
146.047061
 20
420.885378
 30
0.0
 10
125.867899
 20
420.885378
 30
0.0
 10
125.867899
 20
441.045377
 30
0.0
 10
107.608700
 20
441.045377
 30
0.0
 10
107.608700
 20
420.885378
 30
0.0
 10
87.429501
 20
420.885378
 30
0.0
 10
87.429501
 20
441.045377
 30
0.0
 10
69.170302
 20
441.045377
 30
0.0
 10
69.170302
 20
420.885378
 30
0.0
 10
48.991103
 20
420.885378
 30
0.0
 10
48.991103
 20
441.045377
 30
0.0
 10
30.731904
 20
441.045377
 30
0.0
 10
30.731904
 20
420.885378
 30
0.0
 10
0.482305
 20
420.885378
 30
0.0
 10
0.482305
 20
449.565377
 30
0.0
 10
20.642267
 20
449.565377
 30
0.0
 10
20.642267
 20
464.685376
 30
0.0
 10
0.482305
 20
464.685376
 30
0.0
 10
0.482305
 20
481.725375
 30
0.0
 10
20.642267
 20
481.725375
 30
0.0
 10
20.642267
 20
496.845374
 30
0.0
 10
0.482305
 20
496.845374
 30
0.0
 10
0.482305
 20
513.885374
 30
0.0
 10
20.642267
 20
513.885374
 30
0.0
 10
20.642267
 20
529.005373
 30
0.0
 10
0.482305
 20
529.005373
 30
0.0
 10
0.482305
 20
546.045372
 30
0.0
 10
20.642267
 20
546.045372
 30
0.0
 10
20.642267
 20
561.165371
 30
0.0
 10
0.482305
 20
561.165371
 30
0.0
 10
0.482305
 20
578.205371
 30
0.0
 10
20.642267
 20
578.205371
 30
0.0
 10
20.642267
 20
593.325370
 30
0.0
 10
0.482305
 20
593.325370
 30
0.0
 10
0.482305
 20
610.365369
 30
0.0
 10
20.642267
 20
610.365369
 30
0.0
 10
20.642267
 20
625.485368
 30
0.0
 10
0.482305
 20
625.485368
 30
0.0
  0
LWPOLYLINE
  5
101
100
AcDbEntity
  8
CUT
 62
1
100
AcDbPolyline
 90
4
 70
1
 10
39.842304
 20
617.445335
 30
0.0
 10
59.042302
 20
617.445335
 30
0.0
 10
59.042302
 20
586.279355
 30
0.0
 10
39.842304
 20
586.279355
 30
0.0
  0
LWPOLYLINE
  5
102
100
AcDbEntity
  8
CUT
 62
1
100
AcDbPolyline
 90
4
 70
1
 10
39.842304
 20
565.159353
 30
0.0
 10
59.042300
 20
565.159353
 30
0.0
 10
59.042300
 20
533.993373
 30
0.0
 10
39.842304
 20
533.993373
 30
0.0
  0
LWPOLYLINE
  5
103
100
AcDbEntity
  8
CUT
 62
1
100
AcDbPolyline
 90
4
 70
1
 10
39.842304
 20
512.873370
 30
0.0
 10
59.042300
 20
512.873370
 30
0.0
 10
59.042300
 20
481.707390
 30
0.0
 10
39.842304
 20
481.707390
 30
0.0
  0
LWPOLYLINE
  5
104
100
AcDbEntity
  8
CUT
 62
1
100
AcDbPolyline
 90
4
 70
1
 10
962.402108
 20
617.418920
 30
0.0
 10
943.202109
 20
617.418920
 30
0.0
 10
943.202109
 20
586.252939
 30
0.0
 10
962.402108
 20
586.252939
 30
0.0
  0
LWPOLYLINE
  5
105
100
AcDbEntity
  8
CUT
 62
1
100
AcDbPolyline
 90
4
 70
1
 10
962.402108
 20
565.132942
 30
0.0
 10
943.202113
 20
565.132942
 30
0.0
 10
943.202113
 20
533.966961
 30
0.0
 10
962.402108
 20
533.966961
 30
0.0
  0
SPLINE
  5
106
100
AcDbEntity
  8
CUT
 62
1
100
AcDbSpline
 70
8
 71
3
 72
8
 73
4
 74
0
 40
0
 40
0
 40
0
 40
0
 40
1
 40
1
 40
1
 40
1
 10
163.904761
 20
483.876272
 30
0.0
 10
163.904761
 20
477.188260
 30
0.0
 10
160.336749
 20
471.008282
 30
0.0
 10
154.544761
 20
467.664277
 30
0.0
  0
SPLINE
  5
107
100
AcDbEntity
  8
CUT
 62
1
100
AcDbSpline
 70
8
 71
3
 72
8
 73
4
 74
0
 40
0
 40
0
 40
0
 40
0
 40
1
 40
1
 40
1
 40
1
 10
154.544761
 20
467.664277
 30
0.0
 10
148.752773
 20
464.320271
 30
0.0
 10
141.616750
 20
464.320271
 30
0.0
 10
135.824762
 20
467.664277
 30
0.0
  0
SPLINE
  5
108
100
AcDbEntity
  8
CUT
 62
1
100
AcDbSpline
 70
8
 71
3
 72
8
 73
4
 74
0
 40
0
 40
0
 40
0
 40
0
 40
1
 40
1
 40
1
 40
1
 10
135.824762
 20
467.664277
 30
0.0
 10
130.032774
 20
471.008282
 30
0.0
 10
126.464762
 20
477.188260
 30
0.0
 10
126.464762
 20
483.876272
 30
0.0
  0
SPLINE
  5
109
100
AcDbEntity
  8
CUT
 62
1
100
AcDbSpline
 70
8
 71
3
 72
8
 73
4
 74
0
 40
0
 40
0
 40
0
 40
0
 40
1
 40
1
 40
1
 40
1
 10
126.464762
 20
483.876272
 30
0.0
 10
126.464762
 20
490.564283
 30
0.0
 10
130.032774
 20
496.744261
 30
0.0
 10
135.824762
 20
500.088267
 30
0.0
  0
SPLINE
  5
10a
100
AcDbEntity
  8
CUT
 62
1
100
AcDbSpline
 70
8
 71
3
 72
8
 73
4
 74
0
 40
0
 40
0
 40
0
 40
0
 40
1
 40
1
 40
1
 40
1
 10
135.824762
 20
500.088267
 30
0.0
 10
141.616750
 20
503.432273
 30
0.0
 10
148.752773
 20
503.432273
 30
0.0
 10
154.544761
 20
500.088267
 30
0.0
  0
SPLINE
  5
10b
100
AcDbEntity
  8
CUT
 62
1
100
AcDbSpline
 70
8
 71
3
 72
8
 73
4
 74
0
 40
0
 40
0
 40
0
 40
0
 40
1
 40
1
 40
1
 40
1
 10
154.544761
 20
500.088267
 30
0.0
 10
160.336749
 20
496.744261
 30
0.0
 10
163.904761
 20
490.564283
 30
0.0
 10
163.904761
 20
483.876272
 30
0.0
  0
LWPOLYLINE
  5
10c
100
AcDbEntity
  8
CUT
 62
1
100
AcDbPolyline
 90
4
 70
1
 10
962.402108
 20
512.846957
 30
0.0
 10
943.202113
 20
512.846957
 30
0.0
 10
943.202113
 20
481.680977
 30
0.0
 10
962.402108
 20
481.680977
 30
0.0
  0
SPLINE
  5
10d
100
AcDbEntity
  8
CUT
 62
1
100
AcDbSpline
 70
8
 71
3
 72
8
 73
4
 74
0
 40
0
 40
0
 40
0
 40
0
 40
1
 40
1
 40
1
 40
1
 10
163.715596
 20
591.096488
 30
0.0
 10
163.715596
 20
584.408476
 30
0.0
 10
160.147584
 20
578.228499
 30
0.0
 10
154.355596
 20
574.884493
 30
0.0
  0
SPLINE
  5
10e
100
AcDbEntity
  8
CUT
 62
1
100
AcDbSpline
 70
8
 71
3
 72
8
 73
4
 74
0
 40
0
 40
0
 40
0
 40
0
 40
1
 40
1
 40
1
 40
1
 10
154.355596
 20
574.884493
 30
0.0
 10
148.563608
 20
571.540487
 30
0.0
 10
141.427584
 20
571.540487
 30
0.0
 10
135.635596
 20
574.884493
 30
0.0
  0
SPLINE
  5
10f
100
AcDbEntity
  8
CUT
 62
1
100
AcDbSpline
 70
8
 71
3
 72
8
 73
4
 74
0
 40
0
 40
0
 40
0
 40
0
 40
1
 40
1
 40
1
 40
1
 10
135.635596
 20
574.884493
 30
0.0
 10
129.843608
 20
578.228499
 30
0.0
 10
126.275597
 20
584.408476
 30
0.0
 10
126.275597
 20
591.096488
 30
0.0
  0
SPLINE
  5
110
100
AcDbEntity
  8
CUT
 62
1
100
AcDbSpline
 70
8
 71
3
 72
8
 73
4
 74
0
 40
0
 40
0
 40
0
 40
0
 40
1
 40
1
 40
1
 40
1
 10
126.275597
 20
591.096488
 30
0.0
 10
126.275598
 20
601.435257
 30
0.0
 10
134.656827
 20
609.816485
 30
0.0
 10
144.995596
 20
609.816485
 30
0.0
  0
SPLINE
  5
111
100
AcDbEntity
  8
CUT
 62
1
100
AcDbSpline
 70
8
 71
3
 72
8
 73
4
 74
0
 40
0
 40
0
 40
0
 40
0
 40
1
 40
1
 40
1
 40
1
 10
144.995596
 20
609.816485
 30
0.0
 10
155.334366
 20
609.816485
 30
0.0
 10
163.715594
 20
601.435257
 30
0.0
 10
163.715596
 20
591.096488
 30
0.0
  0
LWPOLYLINE
  5
112
100
AcDbEntity
  8
CUT
 62
1
100
AcDbPolyline
 90
1
 70
1
 10
163.904761
 20
483.876272
 30
0.0
  0
SPLINE
  5
113
100
AcDbEntity
  8
CUT
 62
1
100
AcDbSpline
 70
8
 71
3
 72
8
 73
4
 74
0
 40
0
 40
0
 40
0
 40
0
 40
1
 40
1
 40
1
 40
1
 10
102.494093
 20
595.554860
 30
0.0
 10
102.494093
 20
590.238748
 30
0.0
 10
99.657981
 20
585.326459
 30
0.0
 10
95.054093
 20
582.668403
 30
0.0
  0
SPLINE
  5
114
100
AcDbEntity
  8
CUT
 62
1
100
AcDbSpline
 70
8
 71
3
 72
8
 73
4
 74
0
 40
0
 40
0
 40
0
 40
0
 40
1
 40
1
 40
1
 40
1
 10
95.054093
 20
582.668403
 30
0.0
 10
90.450205
 20
580.010347
 30
0.0
 10
84.777982
 20
580.010347
 30
0.0
 10
80.174094
 20
582.668403
 30
0.0
  0
SPLINE
  5
115
100
AcDbEntity
  8
CUT
 62
1
100
AcDbSpline
 70
8
 71
3
 72
8
 73
4
 74
0
 40
0
 40
0
 40
0
 40
0
 40
1
 40
1
 40
1
 40
1
 10
80.174094
 20
582.668403
 30
0.0
 10
75.570206
 20
585.326459
 30
0.0
 10
72.734094
 20
590.238748
 30
0.0
 10
72.734094
 20
595.554860
 30
0.0
  0
SPLINE
  5
116
100
AcDbEntity
  8
CUT
 62
1
100
AcDbSpline
 70
8
 71
3
 72
8
 73
4
 74
0
 40
0
 40
0
 40
0
 40
0
 40
1
 40
1
 40
1
 40
1
 10
72.734094
 20
595.554860
 30
0.0
 10
72.734094
 20
600.870972
 30
0.0
 10
75.570206
 20
605.783262
 30
0.0
 10
80.174094
 20
608.441317
 30
0.0
  0
SPLINE
  5
117
100
AcDbEntity
  8
CUT
 62
1
100
AcDbSpline
 70
8
 71
3
 72
8
 73
4
 74
0
 40
0
 40
0
 40
0
 40
0
 40
1
 40
1
 40
1
 40
1
 10
80.174094
 20
608.441317
 30
0.0
 10
84.777982
 20
611.099373
 30
0.0
 10
90.450205
 20
611.099373
 30
0.0
 10
95.054093
 20
608.441317
 30
0.0
  0
SPLINE
  5
118
100
AcDbEntity
  8
CUT
 62
1
100
AcDbSpline
 70
8
 71
3
 72
8
 73
4
 74
0
 40
0
 40
0
 40
0
 40
0
 40
1
 40
1
 40
1
 40
1
 10
95.054093
 20
608.441317
 30
0.0
 10
99.657981
 20
605.783262
 30
0.0
 10
102.494093
 20
600.870972
 30
0.0
 10
102.494093
 20
595.554860
 30
0.0
  0
LWPOLYLINE
  5
119
100
AcDbEntity
  8
CUT
 62
1
100
AcDbPolyline
 90
1
 70
1
 10
163.715596
 20
591.096488
 30
0.0
  0
SPLINE
  5
11a
100
AcDbEntity
  8
CUT
 62
1
100
AcDbSpline
 70
8
 71
3
 72
8
 73
4
 74
0
 40
0
 40
0
 40
0
 40
0
 40
1
 40
1
 40
1
 40
1
 10
103.834011
 20
480.109259
 30
0.0
 10
103.834011
 20
474.793147
 30
0.0
 10
100.997899
 20
469.880857
 30
0.0
 10
96.394011
 20
467.222801
 30
0.0
  0
SPLINE
  5
11b
100
AcDbEntity
  8
CUT
 62
1
100
AcDbSpline
 70
8
 71
3
 72
8
 73
4
 74
0
 40
0
 40
0
 40
0
 40
0
 40
1
 40
1
 40
1
 40
1
 10
96.394011
 20
467.222801
 30
0.0
 10
91.790123
 20
464.564745
 30
0.0
 10
86.117900
 20
464.564745
 30
0.0
 10
81.514012
 20
467.222801
 30
0.0
  0
SPLINE
  5
11c
100
AcDbEntity
  8
CUT
 62
1
100
AcDbSpline
 70
8
 71
3
 72
8
 73
4
 74
0
 40
0
 40
0
 40
0
 40
0
 40
1
 40
1
 40
1
 40
1
 10
81.514012
 20
467.222801
 30
0.0
 10
76.910124
 20
469.880857
 30
0.0
 10
74.074012
 20
474.793147
 30
0.0
 10
74.074012
 20
480.109259
 30
0.0
  0
SPLINE
  5
11d
100
AcDbEntity
  8
CUT
 62
1
100
AcDbSpline
 70
8
 71
3
 72
8
 73
4
 74
0
 40
0
 40
0
 40
0
 40
0
 40
1
 40
1
 40
1
 40
1
 10
74.074012
 20
480.109259
 30
0.0
 10
74.074012
 20
485.425370
 30
0.0
 10
76.910124
 20
490.337660
 30
0.0
 10
81.514012
 20
492.995716
 30
0.0
  0
SPLINE
  5
11e
100
AcDbEntity
  8
CUT
 62
1
100
AcDbSpline
 70
8
 71
3
 72
8
 73
4
 74
0
 40
0
 40
0
 40
0
 40
0
 40
1
 40
1
 40
1
 40
1
 10
81.514012
 20
492.995716
 30
0.0
 10
86.117900
 20
495.653772
 30
0.0
 10
91.790123
 20
495.653772
 30
0.0
 10
96.394011
 20
492.995716
 30
0.0
  0
SPLINE
  5
11f
100
AcDbEntity
  8
CUT
 62
1
100
AcDbSpline
 70
8
 71
3
 72
8
 73
4
 74
0
 40
0
 40
0
 40
0
 40
0
 40
1
 40
1
 40
1
 40
1
 10
96.394011
 20
492.995716
 30
0.0
 10
100.997899
 20
490.337660
 30
0.0
 10
103.834011
 20
485.425370
 30
0.0
 10
103.834011
 20
480.109259
 30
0.0
  0
LWPOLYLINE
  5
120
100
AcDbEntity
  8
CUT
 62
1
100
AcDbPolyline
 90
1
 70
1
 10
102.494093
 20
595.554860
 30
0.0
  0
SPLINE
  5
121
100
AcDbEntity
  8
CUT
 62
1
100
AcDbSpline
 70
8
 71
3
 72
8
 73
4
 74
0
 40
0
 40
0
 40
0
 40
0
 40
1
 40
1
 40
1
 40
1
 10
239.525053
 20
591.312926
 30
0.0
 10
239.525053
 20
584.624915
 30
0.0
 10
235.957042
 20
578.444937
 30
0.0
 10
230.165054
 20
575.100931
 30
0.0
  0
SPLINE
  5
122
100
AcDbEntity
  8
CUT
 62
1
100
AcDbSpline
 70
8
 71
3
 72
8
 73
4
 74
0
 40
0
 40
0
 40
0
 40
0
 40
1
 40
1
 40
1
 40
1
 10
230.165054
 20
575.100931
 30
0.0
 10
224.373066
 20
571.756926
 30
0.0
 10
217.237042
 20
571.756926
 30
0.0
 10
211.445054
 20
575.100931
 30
0.0
  0
SPLINE
  5
123
100
AcDbEntity
  8
CUT
 62
1
100
AcDbSpline
 70
8
 71
3
 72
8
 73
4
 74
0
 40
0
 40
0
 40
0
 40
0
 40
1
 40
1
 40
1
 40
1
 10
211.445054
 20
575.100931
 30
0.0
 10
205.653066
 20
578.444937
 30
0.0
 10
202.085054
 20
584.624915
 30
0.0
 10
202.085054
 20
591.312926
 30
0.0
  0
SPLINE
  5
124
100
AcDbEntity
  8
CUT
 62
1
100
AcDbSpline
 70
8
 71
3
 72
8
 73
4
 74
0
 40
0
 40
0
 40
0
 40
0
 40
1
 40
1
 40
1
 40
1
 10
202.085054
 20
591.312926
 30
0.0
 10
202.085056
 20
601.651696
 30
0.0
 10
210.466285
 20
610.032924
 30
0.0
 10
220.805054
 20
610.032924
 30
0.0
  0
SPLINE
  5
125
100
AcDbEntity
  8
CUT
 62
1
100
AcDbSpline
 70
8
 71
3
 72
8
 73
4
 74
0
 40
0
 40
0
 40
0
 40
0
 40
1
 40
1
 40
1
 40
1
 10
220.805054
 20
610.032924
 30
0.0
 10
231.143823
 20
610.032924
 30
0.0
 10
239.525052
 20
601.651696
 30
0.0
 10
239.525053
 20
591.312926
 30
0.0
  0
LWPOLYLINE
  5
126
100
AcDbEntity
  8
CUT
 62
1
100
AcDbPolyline
 90
1
 70
1
 10
103.834011
 20
480.109259
 30
0.0
  0
SPLINE
  5
127
100
AcDbEntity
  8
CUT
 62
1
100
AcDbSpline
 70
8
 71
3
 72
8
 73
4
 74
0
 40
0
 40
0
 40
0
 40
0
 40
1
 40
1
 40
1
 40
1
 10
239.591498
 20
483.969353
 30
0.0
 10
239.591498
 20
477.281341
 30
0.0
 10
236.023486
 20
471.101364
 30
0.0
 10
230.231498
 20
467.757358
 30
0.0
  0
SPLINE
  5
128
100
AcDbEntity
  8
CUT
 62
1
100
AcDbSpline
 70
8
 71
3
 72
8
 73
4
 74
0
 40
0
 40
0
 40
0
 40
0
 40
1
 40
1
 40
1
 40
1
 10
230.231498
 20
467.757358
 30
0.0
 10
224.439510
 20
464.413352
 30
0.0
 10
217.303486
 20
464.413352
 30
0.0
 10
211.511498
 20
467.757358
 30
0.0
  0
SPLINE
  5
129
100
AcDbEntity
  8
CUT
 62
1
100
AcDbSpline
 70
8
 71
3
 72
8
 73
4
 74
0
 40
0
 40
0
 40
0
 40
0
 40
1
 40
1
 40
1
 40
1
 10
211.511498
 20
467.757358
 30
0.0
 10
205.719510
 20
471.101364
 30
0.0
 10
202.151499
 20
477.281341
 30
0.0
 10
202.151499
 20
483.969353
 30
0.0
  0
SPLINE
  5
12a
100
AcDbEntity
  8
CUT
 62
1
100
AcDbSpline
 70
8
 71
3
 72
8
 73
4
 74
0
 40
0
 40
0
 40
0
 40
0
 40
1
 40
1
 40
1
 40
1
 10
202.151499
 20
483.969353
 30
0.0
 10
202.151499
 20
490.657364
 30
0.0
 10
205.719510
 20
496.837342
 30
0.0
 10
211.511498
 20
500.181348
 30
0.0
  0
SPLINE
  5
12b
100
AcDbEntity
  8
CUT
 62
1
100
AcDbSpline
 70
8
 71
3
 72
8
 73
4
 74
0
 40
0
 40
0
 40
0
 40
0
 40
1
 40
1
 40
1
 40
1
 10
211.511498
 20
500.181348
 30
0.0
 10
217.303486
 20
503.525354
 30
0.0
 10
224.439510
 20
503.525354
 30
0.0
 10
230.231498
 20
500.181348
 30
0.0
  0
SPLINE
  5
12c
100
AcDbEntity
  8
CUT
 62
1
100
AcDbSpline
 70
8
 71
3
 72
8
 73
4
 74
0
 40
0
 40
0
 40
0
 40
0
 40
1
 40
1
 40
1
 40
1
 10
230.231498
 20
500.181348
 30
0.0
 10
236.023486
 20
496.837342
 30
0.0
 10
239.591498
 20
490.657364
 30
0.0
 10
239.591498
 20
483.969353
 30
0.0
  0
LWPOLYLINE
  5
12d
100
AcDbEntity
  8
CUT
 62
1
100
AcDbPolyline
 90
1
 70
1
 10
239.525053
 20
591.312926
 30
0.0
  0
SPLINE
  5
12e
100
AcDbEntity
  8
CUT
 62
1
100
AcDbSpline
 70
8
 71
3
 72
8
 73
4
 74
0
 40
0
 40
0
 40
0
 40
0
 40
1
 40
1
 40
1
 40
1
 10
317.559141
 20
591.186683
 30
0.0
 10
317.559141
 20
584.498671
 30
0.0
 10
313.991129
 20
578.318693
 30
0.0
 10
308.199141
 20
574.974688
 30
0.0
  0
SPLINE
  5
12f
100
AcDbEntity
  8
CUT
 62
1
100
AcDbSpline
 70
8
 71
3
 72
8
 73
4
 74
0
 40
0
 40
0
 40
0
 40
0
 40
1
 40
1
 40
1
 40
1
 10
308.199141
 20
574.974688
 30
0.0
 10
302.407153
 20
571.630682
 30
0.0
 10
295.271130
 20
571.630682
 30
0.0
 10
289.479142
 20
574.974688
 30
0.0
  0
SPLINE
  5
130
100
AcDbEntity
  8
CUT
 62
1
100
AcDbSpline
 70
8
 71
3
 72
8
 73
4
 74
0
 40
0
 40
0
 40
0
 40
0
 40
1
 40
1
 40
1
 40
1
 10
289.479142
 20
574.974688
 30
0.0
 10
283.687154
 20
578.318693
 30
0.0
 10
280.119142
 20
584.498671
 30
0.0
 10
280.119142
 20
591.186683
 30
0.0
  0
SPLINE
  5
131
100
AcDbEntity
  8
CUT
 62
1
100
AcDbSpline
 70
8
 71
3
 72
8
 73
4
 74
0
 40
0
 40
0
 40
0
 40
0
 40
1
 40
1
 40
1
 40
1
 10
280.119142
 20
591.186683
 30
0.0
 10
280.119142
 20
597.874694
 30
0.0
 10
283.687154
 20
604.054672
 30
0.0
 10
289.479142
 20
607.398678
 30
0.0
  0
SPLINE
  5
132
100
AcDbEntity
  8
CUT
 62
1
100
AcDbSpline
 70
8
 71
3
 72
8
 73
4
 74
0
 40
0
 40
0
 40
0
 40
0
 40
1
 40
1
 40
1
 40
1
 10
289.479142
 20
607.398678
 30
0.0
 10
295.271130
 20
610.742684
 30
0.0
 10
302.407153
 20
610.742684
 30
0.0
 10
308.199141
 20
607.398678
 30
0.0
  0
SPLINE
  5
133
100
AcDbEntity
  8
CUT
 62
1
100
AcDbSpline
 70
8
 71
3
 72
8
 73
4
 74
0
 40
0
 40
0
 40
0
 40
0
 40
1
 40
1
 40
1
 40
1
 10
308.199141
 20
607.398678
 30
0.0
 10
313.991129
 20
604.054672
 30
0.0
 10
317.559141
 20
597.874694
 30
0.0
 10
317.559141
 20
591.186683
 30
0.0
  0
LWPOLYLINE
  5
134
100
AcDbEntity
  8
CUT
 62
1
100
AcDbPolyline
 90
1
 70
1
 10
239.591498
 20
483.969353
 30
0.0
  0
SPLINE
  5
135
100
AcDbEntity
  8
CUT
 62
1
100
AcDbSpline
 70
8
 71
3
 72
8
 73
4
 74
0
 40
0
 40
0
 40
0
 40
0
 40
1
 40
1
 40
1
 40
1
 10
317.629365
 20
483.948476
 30
0.0
 10
317.629365
 20
477.260464
 30
0.0
 10
314.061353
 20
471.080487
 30
0.0
 10
308.269365
 20
467.736481
 30
0.0
  0
SPLINE
  5
136
100
AcDbEntity
  8
CUT
 62
1
100
AcDbSpline
 70
8
 71
3
 72
8
 73
4
 74
0
 40
0
 40
0
 40
0
 40
0
 40
1
 40
1
 40
1
 40
1
 10
308.269365
 20
467.736481
 30
0.0
 10
302.477377
 20
464.392475
 30
0.0
 10
295.341353
 20
464.392475
 30
0.0
 10
289.549365
 20
467.736481
 30
0.0
  0
SPLINE
  5
137
100
AcDbEntity
  8
CUT
 62
1
100
AcDbSpline
 70
8
 71
3
 72
8
 73
4
 74
0
 40
0
 40
0
 40
0
 40
0
 40
1
 40
1
 40
1
 40
1
 10
289.549365
 20
467.736481
 30
0.0
 10
283.757377
 20
471.080487
 30
0.0
 10
280.189366
 20
477.260464
 30
0.0
 10
280.189366
 20
483.948476
 30
0.0
  0
SPLINE
  5
138
100
AcDbEntity
  8
CUT
 62
1
100
AcDbSpline
 70
8
 71
3
 72
8
 73
4
 74
0
 40
0
 40
0
 40
0
 40
0
 40
1
 40
1
 40
1
 40
1
 10
280.189366
 20
483.948476
 30
0.0
 10
280.189367
 20
494.287245
 30
0.0
 10
288.570596
 20
502.668473
 30
0.0
 10
298.909365
 20
502.668473
 30
0.0
  0
SPLINE
  5
139
100
AcDbEntity
  8
CUT
 62
1
100
AcDbSpline
 70
8
 71
3
 72
8
 73
4
 74
0
 40
0
 40
0
 40
0
 40
0
 40
1
 40
1
 40
1
 40
1
 10
298.909365
 20
502.668473
 30
0.0
 10
309.248134
 20
502.668473
 30
0.0
 10
317.629363
 20
494.287245
 30
0.0
 10
317.629365
 20
483.948476
 30
0.0
  0
LWPOLYLINE
  5
13a
100
AcDbEntity
  8
CUT
 62
1
100
AcDbPolyline
 90
1
 70
1
 10
317.559141
 20
591.186683
 30
0.0
  0
SPLINE
  5
13b
100
AcDbEntity
  8
CUT
 62
1
100
AcDbSpline
 70
8
 71
3
 72
8
 73
4
 74
0
 40
0
 40
0
 40
0
 40
0
 40
1
 40
1
 40
1
 40
1
 10
394.457065
 20
591.186683
 30
0.0
 10
394.457065
 20
584.498671
 30
0.0
 10
390.889053
 20
578.318693
 30
0.0
 10
385.097065
 20
574.974688
 30
0.0
  0
SPLINE
  5
13c
100
AcDbEntity
  8
CUT
 62
1
100
AcDbSpline
 70
8
 71
3
 72
8
 73
4
 74
0
 40
0
 40
0
 40
0
 40
0
 40
1
 40
1
 40
1
 40
1
 10
385.097065
 20
574.974688
 30
0.0
 10
379.305077
 20
571.630682
 30
0.0
 10
372.169054
 20
571.630682
 30
0.0
 10
366.377066
 20
574.974688
 30
0.0
  0
SPLINE
  5
13d
100
AcDbEntity
  8
CUT
 62
1
100
AcDbSpline
 70
8
 71
3
 72
8
 73
4
 74
0
 40
0
 40
0
 40
0
 40
0
 40
1
 40
1
 40
1
 40
1
 10
366.377066
 20
574.974688
 30
0.0
 10
360.585078
 20
578.318693
 30
0.0
 10
357.017066
 20
584.498671
 30
0.0
 10
357.017066
 20
591.186683
 30
0.0
  0
SPLINE
  5
13e
100
AcDbEntity
  8
CUT
 62
1
100
AcDbSpline
 70
8
 71
3
 72
8
 73
4
 74
0
 40
0
 40
0
 40
0
 40
0
 40
1
 40
1
 40
1
 40
1
 10
357.017066
 20
591.186683
 30
0.0
 10
357.017067
 20
601.525452
 30
0.0
 10
365.398296
 20
609.906680
 30
0.0
 10
375.737065
 20
609.906680
 30
0.0
  0
SPLINE
  5
13f
100
AcDbEntity
  8
CUT
 62
1
100
AcDbSpline
 70
8
 71
3
 72
8
 73
4
 74
0
 40
0
 40
0
 40
0
 40
0
 40
1
 40
1
 40
1
 40
1
 10
375.737065
 20
609.906680
 30
0.0
 10
386.075835
 20
609.906680
 30
0.0
 10
394.457064
 20
601.525452
 30
0.0
 10
394.457065
 20
591.186683
 30
0.0
  0
LWPOLYLINE
  5
140
100
AcDbEntity
  8
CUT
 62
1
100
AcDbPolyline
 90
1
 70
1
 10
317.629365
 20
483.948476
 30
0.0
  0
SPLINE
  5
141
100
AcDbEntity
  8
CUT
 62
1
100
AcDbSpline
 70
8
 71
3
 72
8
 73
4
 74
0
 40
0
 40
0
 40
0
 40
0
 40
1
 40
1
 40
1
 40
1
 10
394.457178
 20
483.921140
 30
0.0
 10
394.457178
 20
477.233128
 30
0.0
 10
390.889166
 20
471.053150
 30
0.0
 10
385.097178
 20
467.709145
 30
0.0
  0
SPLINE
  5
142
100
AcDbEntity
  8
CUT
 62
1
100
AcDbSpline
 70
8
 71
3
 72
8
 73
4
 74
0
 40
0
 40
0
 40
0
 40
0
 40
1
 40
1
 40
1
 40
1
 10
385.097178
 20
467.709145
 30
0.0
 10
379.305191
 20
464.365139
 30
0.0
 10
372.169167
 20
464.365139
 30
0.0
 10
366.377179
 20
467.709145
 30
0.0
  0
SPLINE
  5
143
100
AcDbEntity
  8
CUT
 62
1
100
AcDbSpline
 70
8
 71
3
 72
8
 73
4
 74
0
 40
0
 40
0
 40
0
 40
0
 40
1
 40
1
 40
1
 40
1
 10
366.377179
 20
467.709145
 30
0.0
 10
360.585191
 20
471.053150
 30
0.0
 10
357.017179
 20
477.233128
 30
0.0
 10
357.017179
 20
483.921140
 30
0.0
  0
SPLINE
  5
144
100
AcDbEntity
  8
CUT
 62
1
100
AcDbSpline
 70
8
 71
3
 72
8
 73
4
 74
0
 40
0
 40
0
 40
0
 40
0
 40
1
 40
1
 40
1
 40
1
 10
357.017179
 20
483.921140
 30
0.0
 10
357.017179
 20
490.609151
 30
0.0
 10
360.585191
 20
496.789129
 30
0.0
 10
366.377179
 20
500.133135
 30
0.0
  0
SPLINE
  5
145
100
AcDbEntity
  8
CUT
 62
1
100
AcDbSpline
 70
8
 71
3
 72
8
 73
4
 74
0
 40
0
 40
0
 40
0
 40
0
 40
1
 40
1
 40
1
 40
1
 10
366.377179
 20
500.133135
 30
0.0
 10
372.169167
 20
503.477141
 30
0.0
 10
379.305191
 20
503.477141
 30
0.0
 10
385.097178
 20
500.133135
 30
0.0
  0
SPLINE
  5
146
100
AcDbEntity
  8
CUT
 62
1
100
AcDbSpline
 70
8
 71
3
 72
8
 73
4
 74
0
 40
0
 40
0
 40
0
 40
0
 40
1
 40
1
 40
1
 40
1
 10
385.097178
 20
500.133135
 30
0.0
 10
390.889166
 20
496.789129
 30
0.0
 10
394.457178
 20
490.609151
 30
0.0
 10
394.457178
 20
483.921140
 30
0.0
  0
LWPOLYLINE
  5
147
100
AcDbEntity
  8
CUT
 62
1
100
AcDbPolyline
 90
1
 70
1
 10
394.457065
 20
591.186683
 30
0.0
  0
SPLINE
  5
148
100
AcDbEntity
  8
CUT
 62
1
100
AcDbSpline
 70
8
 71
3
 72
8
 73
4
 74
0
 40
0
 40
0
 40
0
 40
0
 40
1
 40
1
 40
1
 40
1
 10
471.228715
 20
591.123534
 30
0.0
 10
471.228715
 20
584.435523
 30
0.0
 10
467.660703
 20
578.255545
 30
0.0
 10
461.868715
 20
574.911539
 30
0.0
  0
SPLINE
  5
149
100
AcDbEntity
  8
CUT
 62
1
100
AcDbSpline
 70
8
 71
3
 72
8
 73
4
 74
0
 40
0
 40
0
 40
0
 40
0
 40
1
 40
1
 40
1
 40
1
 10
461.868715
 20
574.911539
 30
0.0
 10
456.076727
 20
571.567533
 30
0.0
 10
448.940703
 20
571.567533
 30
0.0
 10
443.148715
 20
574.911539
 30
0.0
  0
SPLINE
  5
14a
100
AcDbEntity
  8
CUT
 62
1
100
AcDbSpline
 70
8
 71
3
 72
8
 73
4
 74
0
 40
0
 40
0
 40
0
 40
0
 40
1
 40
1
 40
1
 40
1
 10
443.148715
 20
574.911539
 30
0.0
 10
437.356727
 20
578.255545
 30
0.0
 10
433.788716
 20
584.435523
 30
0.0
 10
433.788716
 20
591.123534
 30
0.0
  0
SPLINE
  5
14b
100
AcDbEntity
  8
CUT
 62
1
100
AcDbSpline
 70
8
 71
3
 72
8
 73
4
 74
0
 40
0
 40
0
 40
0
 40
0
 40
1
 40
1
 40
1
 40
1
 10
433.788716
 20
591.123534
 30
0.0
 10
433.788716
 20
597.811546
 30
0.0
 10
437.356727
 20
603.991524
 30
0.0
 10
443.148715
 20
607.335529
 30
0.0
  0
SPLINE
  5
14c
100
AcDbEntity
  8
CUT
 62
1
100
AcDbSpline
 70
8
 71
3
 72
8
 73
4
 74
0
 40
0
 40
0
 40
0
 40
0
 40
1
 40
1
 40
1
 40
1
 10
443.148715
 20
607.335529
 30
0.0
 10
448.940703
 20
610.679535
 30
0.0
 10
456.076727
 20
610.679535
 30
0.0
 10
461.868715
 20
607.335529
 30
0.0
  0
SPLINE
  5
14d
100
AcDbEntity
  8
CUT
 62
1
100
AcDbSpline
 70
8
 71
3
 72
8
 73
4
 74
0
 40
0
 40
0
 40
0
 40
0
 40
1
 40
1
 40
1
 40
1
 10
461.868715
 20
607.335529
 30
0.0
 10
467.660703
 20
603.991524
 30
0.0
 10
471.228715
 20
597.811546
 30
0.0
 10
471.228715
 20
591.123534
 30
0.0
  0
LWPOLYLINE
  5
14e
100
AcDbEntity
  8
CUT
 62
1
100
AcDbPolyline
 90
1
 70
1
 10
394.457178
 20
483.921140
 30
0.0
  0
SPLINE
  5
14f
100
AcDbEntity
  8
CUT
 62
1
100
AcDbSpline
 70
8
 71
3
 72
8
 73
4
 74
0
 40
0
 40
0
 40
0
 40
0
 40
1
 40
1
 40
1
 40
1
 10
471.291833
 20
483.857990
 30
0.0
 10
471.291833
 20
477.169978
 30
0.0
 10
467.723821
 20
470.990000
 30
0.0
 10
461.931833
 20
467.645995
 30
0.0
  0
SPLINE
  5
150
100
AcDbEntity
  8
CUT
 62
1
100
AcDbSpline
 70
8
 71
3
 72
8
 73
4
 74
0
 40
0
 40
0
 40
0
 40
0
 40
1
 40
1
 40
1
 40
1
 10
461.931833
 20
467.645995
 30
0.0
 10
456.139845
 20
464.301989
 30
0.0
 10
449.003822
 20
464.301989
 30
0.0
 10
443.211834
 20
467.645995
 30
0.0
  0
SPLINE
  5
151
100
AcDbEntity
  8
CUT
 62
1
100
AcDbSpline
 70
8
 71
3
 72
8
 73
4
 74
0
 40
0
 40
0
 40
0
 40
0
 40
1
 40
1
 40
1
 40
1
 10
443.211834
 20
467.645995
 30
0.0
 10
437.419846
 20
470.990000
 30
0.0
 10
433.851834
 20
477.169978
 30
0.0
 10
433.851834
 20
483.857990
 30
0.0
  0
SPLINE
  5
152
100
AcDbEntity
  8
CUT
 62
1
100
AcDbSpline
 70
8
 71
3
 72
8
 73
4
 74
0
 40
0
 40
0
 40
0
 40
0
 40
1
 40
1
 40
1
 40
1
 10
433.851834
 20
483.857990
 30
0.0
 10
433.851834
 20
490.546001
 30
0.0
 10
437.419846
 20
496.725979
 30
0.0
 10
443.211834
 20
500.069985
 30
0.0
  0
SPLINE
  5
153
100
AcDbEntity
  8
CUT
 62
1
100
AcDbSpline
 70
8
 71
3
 72
8
 73
4
 74
0
 40
0
 40
0
 40
0
 40
0
 40
1
 40
1
 40
1
 40
1
 10
443.211834
 20
500.069985
 30
0.0
 10
449.003822
 20
503.413991
 30
0.0
 10
456.139845
 20
503.413991
 30
0.0
 10
461.931833
 20
500.069985
 30
0.0
  0
SPLINE
  5
154
100
AcDbEntity
  8
CUT
 62
1
100
AcDbSpline
 70
8
 71
3
 72
8
 73
4
 74
0
 40
0
 40
0
 40
0
 40
0
 40
1
 40
1
 40
1
 40
1
 10
461.931833
 20
500.069985
 30
0.0
 10
467.723821
 20
496.725979
 30
0.0
 10
471.291833
 20
490.546001
 30
0.0
 10
471.291833
 20
483.857990
 30
0.0
  0
LWPOLYLINE
  5
155
100
AcDbEntity
  8
CUT
 62
1
100
AcDbPolyline
 90
1
 70
1
 10
471.228715
 20
591.123534
 30
0.0
  0
SPLINE
  5
156
100
AcDbEntity
  8
CUT
 62
1
100
AcDbSpline
 70
8
 71
3
 72
8
 73
4
 74
0
 40
0
 40
0
 40
0
 40
0
 40
1
 40
1
 40
1
 40
1
 10
548.252761
 20
591.123534
 30
0.0
 10
548.252761
 20
584.435523
 30
0.0
 10
544.684750
 20
578.255545
 30
0.0
 10
538.892762
 20
574.911539
 30
0.0
  0
SPLINE
  5
157
100
AcDbEntity
  8
CUT
 62
1
100
AcDbSpline
 70
8
 71
3
 72
8
 73
4
 74
0
 40
0
 40
0
 40
0
 40
0
 40
1
 40
1
 40
1
 40
1
 10
538.892762
 20
574.911539
 30
0.0
 10
533.100774
 20
571.567533
 30
0.0
 10
525.964750
 20
571.567533
 30
0.0
 10
520.172762
 20
574.911539
 30
0.0
  0
SPLINE
  5
158
100
AcDbEntity
  8
CUT
 62
1
100
AcDbSpline
 70
8
 71
3
 72
8
 73
4
 74
0
 40
0
 40
0
 40
0
 40
0
 40
1
 40
1
 40
1
 40
1
 10
520.172762
 20
574.911539
 30
0.0
 10
514.380774
 20
578.255545
 30
0.0
 10
510.812762
 20
584.435523
 30
0.0
 10
510.812762
 20
591.123534
 30
0.0
  0
SPLINE
  5
159
100
AcDbEntity
  8
CUT
 62
1
100
AcDbSpline
 70
8
 71
3
 72
8
 73
4
 74
0
 40
0
 40
0
 40
0
 40
0
 40
1
 40
1
 40
1
 40
1
 10
510.812762
 20
591.123534
 30
0.0
 10
510.812762
 20
597.811546
 30
0.0
 10
514.380774
 20
603.991524
 30
0.0
 10
520.172762
 20
607.335529
 30
0.0
  0
SPLINE
  5
15a
100
AcDbEntity
  8
CUT
 62
1
100
AcDbSpline
 70
8
 71
3
 72
8
 73
4
 74
0
 40
0
 40
0
 40
0
 40
0
 40
1
 40
1
 40
1
 40
1
 10
520.172762
 20
607.335529
 30
0.0
 10
525.964750
 20
610.679535
 30
0.0
 10
533.100774
 20
610.679535
 30
0.0
 10
538.892762
 20
607.335529
 30
0.0
  0
SPLINE
  5
15b
100
AcDbEntity
  8
CUT
 62
1
100
AcDbSpline
 70
8
 71
3
 72
8
 73
4
 74
0
 40
0
 40
0
 40
0
 40
0
 40
1
 40
1
 40
1
 40
1
 10
538.892762
 20
607.335529
 30
0.0
 10
544.684750
 20
603.991524
 30
0.0
 10
548.252761
 20
597.811546
 30
0.0
 10
548.252761
 20
591.123534
 30
0.0
  0
LWPOLYLINE
  5
15c
100
AcDbEntity
  8
CUT
 62
1
100
AcDbPolyline
 90
1
 70
1
 10
471.291833
 20
483.857990
 30
0.0
  0
SPLINE
  5
15d
100
AcDbEntity
  8
CUT
 62
1
100
AcDbSpline
 70
8
 71
3
 72
8
 73
4
 74
0
 40
0
 40
0
 40
0
 40
0
 40
1
 40
1
 40
1
 40
1
 10
548.189757
 20
483.857932
 30
0.0
 10
548.189757
 20
477.169921
 30
0.0
 10
544.621745
 20
470.989943
 30
0.0
 10
538.829757
 20
467.645937
 30
0.0
  0
SPLINE
  5
15e
100
AcDbEntity
  8
CUT
 62
1
100
AcDbSpline
 70
8
 71
3
 72
8
 73
4
 74
0
 40
0
 40
0
 40
0
 40
0
 40
1
 40
1
 40
1
 40
1
 10
538.829757
 20
467.645937
 30
0.0
 10
533.037769
 20
464.301931
 30
0.0
 10
525.901745
 20
464.301931
 30
0.0
 10
520.109757
 20
467.645937
 30
0.0
  0
SPLINE
  5
15f
100
AcDbEntity
  8
CUT
 62
1
100
AcDbSpline
 70
8
 71
3
 72
8
 73
4
 74
0
 40
0
 40
0
 40
0
 40
0
 40
1
 40
1
 40
1
 40
1
 10
520.109757
 20
467.645937
 30
0.0
 10
514.317769
 20
470.989943
 30
0.0
 10
510.749758
 20
477.169921
 30
0.0
 10
510.749758
 20
483.857932
 30
0.0
  0
SPLINE
  5
160
100
AcDbEntity
  8
CUT
 62
1
100
AcDbSpline
 70
8
 71
3
 72
8
 73
4
 74
0
 40
0
 40
0
 40
0
 40
0
 40
1
 40
1
 40
1
 40
1
 10
510.749758
 20
483.857932
 30
0.0
 10
510.749758
 20
490.545944
 30
0.0
 10
514.317769
 20
496.725922
 30
0.0
 10
520.109757
 20
500.069927
 30
0.0
  0
SPLINE
  5
161
100
AcDbEntity
  8
CUT
 62
1
100
AcDbSpline
 70
8
 71
3
 72
8
 73
4
 74
0
 40
0
 40
0
 40
0
 40
0
 40
1
 40
1
 40
1
 40
1
 10
520.109757
 20
500.069927
 30
0.0
 10
525.901745
 20
503.413933
 30
0.0
 10
533.037769
 20
503.413933
 30
0.0
 10
538.829757
 20
500.069927
 30
0.0
  0
SPLINE
  5
162
100
AcDbEntity
  8
CUT
 62
1
100
AcDbSpline
 70
8
 71
3
 72
8
 73
4
 74
0
 40
0
 40
0
 40
0
 40
0
 40
1
 40
1
 40
1
 40
1
 10
538.829757
 20
500.069927
 30
0.0
 10
544.621745
 20
496.725922
 30
0.0
 10
548.189757
 20
490.545944
 30
0.0
 10
548.189757
 20
483.857932
 30
0.0
  0
LWPOLYLINE
  5
163
100
AcDbEntity
  8
CUT
 62
1
100
AcDbPolyline
 90
1
 70
1
 10
548.252761
 20
591.123534
 30
0.0
  0
SPLINE
  5
164
100
AcDbEntity
  8
CUT
 62
1
100
AcDbSpline
 70
8
 71
3
 72
8
 73
4
 74
0
 40
0
 40
0
 40
0
 40
0
 40
1
 40
1
 40
1
 40
1
 10
625.087492
 20
591.186683
 30
0.0
 10
625.087492
 20
584.498671
 30
0.0
 10
621.519480
 20
578.318693
 30
0.0
 10
615.727492
 20
574.974688
 30
0.0
  0
SPLINE
  5
165
100
AcDbEntity
  8
CUT
 62
1
100
AcDbSpline
 70
8
 71
3
 72
8
 73
4
 74
0
 40
0
 40
0
 40
0
 40
0
 40
1
 40
1
 40
1
 40
1
 10
615.727492
 20
574.974688
 30
0.0
 10
609.935504
 20
571.630682
 30
0.0
 10
602.799480
 20
571.630682
 30
0.0
 10
597.007492
 20
574.974688
 30
0.0
  0
SPLINE
  5
166
100
AcDbEntity
  8
CUT
 62
1
100
AcDbSpline
 70
8
 71
3
 72
8
 73
4
 74
0
 40
0
 40
0
 40
0
 40
0
 40
1
 40
1
 40
1
 40
1
 10
597.007492
 20
574.974688
 30
0.0
 10
591.215504
 20
578.318693
 30
0.0
 10
587.647493
 20
584.498671
 30
0.0
 10
587.647493
 20
591.186683
 30
0.0
  0
SPLINE
  5
167
100
AcDbEntity
  8
CUT
 62
1
100
AcDbSpline
 70
8
 71
3
 72
8
 73
4
 74
0
 40
0
 40
0
 40
0
 40
0
 40
1
 40
1
 40
1
 40
1
 10
587.647493
 20
591.186683
 30
0.0
 10
587.647493
 20
597.874694
 30
0.0
 10
591.215504
 20
604.054672
 30
0.0
 10
597.007492
 20
607.398678
 30
0.0
  0
SPLINE
  5
168
100
AcDbEntity
  8
CUT
 62
1
100
AcDbSpline
 70
8
 71
3
 72
8
 73
4
 74
0
 40
0
 40
0
 40
0
 40
0
 40
1
 40
1
 40
1
 40
1
 10
597.007492
 20
607.398678
 30
0.0
 10
602.799480
 20
610.742684
 30
0.0
 10
609.935504
 20
610.742684
 30
0.0
 10
615.727492
 20
607.398678
 30
0.0
  0
SPLINE
  5
169
100
AcDbEntity
  8
CUT
 62
1
100
AcDbSpline
 70
8
 71
3
 72
8
 73
4
 74
0
 40
0
 40
0
 40
0
 40
0
 40
1
 40
1
 40
1
 40
1
 10
615.727492
 20
607.398678
 30
0.0
 10
621.519480
 20
604.054672
 30
0.0
 10
625.087492
 20
597.874694
 30
0.0
 10
625.087492
 20
591.186683
 30
0.0
  0
LWPOLYLINE
  5
16a
100
AcDbEntity
  8
CUT
 62
1
100
AcDbPolyline
 90
1
 70
1
 10
548.189757
 20
483.857932
 30
0.0
  0
SPLINE
  5
16b
100
AcDbEntity
  8
CUT
 62
1
100
AcDbSpline
 70
8
 71
3
 72
8
 73
4
 74
0
 40
0
 40
0
 40
0
 40
0
 40
1
 40
1
 40
1
 40
1
 10
625.087605
 20
483.858048
 30
0.0
 10
625.087605
 20
477.170036
 30
0.0
 10
621.519593
 20
470.990058
 30
0.0
 10
615.727605
 20
467.646052
 30
0.0
  0
SPLINE
  5
16c
100
AcDbEntity
  8
CUT
 62
1
100
AcDbSpline
 70
8
 71
3
 72
8
 73
4
 74
0
 40
0
 40
0
 40
0
 40
0
 40
1
 40
1
 40
1
 40
1
 10
615.727605
 20
467.646052
 30
0.0
 10
609.935617
 20
464.302047
 30
0.0
 10
602.799594
 20
464.302047
 30
0.0
 10
597.007606
 20
467.646052
 30
0.0
  0
SPLINE
  5
16d
100
AcDbEntity
  8
CUT
 62
1
100
AcDbSpline
 70
8
 71
3
 72
8
 73
4
 74
0
 40
0
 40
0
 40
0
 40
0
 40
1
 40
1
 40
1
 40
1
 10
597.007606
 20
467.646052
 30
0.0
 10
591.215618
 20
470.990058
 30
0.0
 10
587.647606
 20
477.170036
 30
0.0
 10
587.647606
 20
483.858048
 30
0.0
  0
SPLINE
  5
16e
100
AcDbEntity
  8
CUT
 62
1
100
AcDbSpline
 70
8
 71
3
 72
8
 73
4
 74
0
 40
0
 40
0
 40
0
 40
0
 40
1
 40
1
 40
1
 40
1
 10
587.647606
 20
483.858048
 30
0.0
 10
587.647606
 20
490.546059
 30
0.0
 10
591.215618
 20
496.726037
 30
0.0
 10
597.007606
 20
500.070043
 30
0.0
  0
SPLINE
  5
16f
100
AcDbEntity
  8
CUT
 62
1
100
AcDbSpline
 70
8
 71
3
 72
8
 73
4
 74
0
 40
0
 40
0
 40
0
 40
0
 40
1
 40
1
 40
1
 40
1
 10
597.007606
 20
500.070043
 30
0.0
 10
602.799594
 20
503.414049
 30
0.0
 10
609.935617
 20
503.414049
 30
0.0
 10
615.727605
 20
500.070043
 30
0.0
  0
SPLINE
  5
170
100
AcDbEntity
  8
CUT
 62
1
100
AcDbSpline
 70
8
 71
3
 72
8
 73
4
 74
0
 40
0
 40
0
 40
0
 40
0
 40
1
 40
1
 40
1
 40
1
 10
615.727605
 20
500.070043
 30
0.0
 10
621.519593
 20
496.726037
 30
0.0
 10
625.087605
 20
490.546059
 30
0.0
 10
625.087605
 20
483.858048
 30
0.0
  0
LWPOLYLINE
  5
171
100
AcDbEntity
  8
CUT
 62
1
100
AcDbPolyline
 90
1
 70
1
 10
625.087492
 20
591.186683
 30
0.0
  0
SPLINE
  5
172
100
AcDbEntity
  8
CUT
 62
1
100
AcDbSpline
 70
8
 71
3
 72
8
 73
4
 74
0
 40
0
 40
0
 40
0
 40
0
 40
1
 40
1
 40
1
 40
1
 10
701.922222
 20
591.312926
 30
0.0
 10
701.922222
 20
584.624915
 30
0.0
 10
698.354210
 20
578.444937
 30
0.0
 10
692.562222
 20
575.100931
 30
0.0
  0
SPLINE
  5
173
100
AcDbEntity
  8
CUT
 62
1
100
AcDbSpline
 70
8
 71
3
 72
8
 73
4
 74
0
 40
0
 40
0
 40
0
 40
0
 40
1
 40
1
 40
1
 40
1
 10
692.562222
 20
575.100931
 30
0.0
 10
686.770234
 20
571.756926
 30
0.0
 10
679.634210
 20
571.756926
 30
0.0
 10
673.842222
 20
575.100931
 30
0.0
  0
SPLINE
  5
174
100
AcDbEntity
  8
CUT
 62
1
100
AcDbSpline
 70
8
 71
3
 72
8
 73
4
 74
0
 40
0
 40
0
 40
0
 40
0
 40
1
 40
1
 40
1
 40
1
 10
673.842222
 20
575.100931
 30
0.0
 10
668.050234
 20
578.444937
 30
0.0
 10
664.482223
 20
584.624915
 30
0.0
 10
664.482223
 20
591.312926
 30
0.0
  0
SPLINE
  5
175
100
AcDbEntity
  8
CUT
 62
1
100
AcDbSpline
 70
8
 71
3
 72
8
 73
4
 74
0
 40
0
 40
0
 40
0
 40
0
 40
1
 40
1
 40
1
 40
1
 10
664.482223
 20
591.312926
 30
0.0
 10
664.482223
 20
598.000938
 30
0.0
 10
668.050234
 20
604.180916
 30
0.0
 10
673.842222
 20
607.524922
 30
0.0
  0
SPLINE
  5
176
100
AcDbEntity
  8
CUT
 62
1
100
AcDbSpline
 70
8
 71
3
 72
8
 73
4
 74
0
 40
0
 40
0
 40
0
 40
0
 40
1
 40
1
 40
1
 40
1
 10
673.842222
 20
607.524922
 30
0.0
 10
679.634210
 20
610.868927
 30
0.0
 10
686.770234
 20
610.868927
 30
0.0
 10
692.562222
 20
607.524922
 30
0.0
  0
SPLINE
  5
177
100
AcDbEntity
  8
CUT
 62
1
100
AcDbSpline
 70
8
 71
3
 72
8
 73
4
 74
0
 40
0
 40
0
 40
0
 40
0
 40
1
 40
1
 40
1
 40
1
 10
692.562222
 20
607.524922
 30
0.0
 10
698.354210
 20
604.180916
 30
0.0
 10
701.922222
 20
598.000938
 30
0.0
 10
701.922222
 20
591.312926
 30
0.0
  0
LWPOLYLINE
  5
178
100
AcDbEntity
  8
CUT
 62
1
100
AcDbPolyline
 90
1
 70
1
 10
625.087605
 20
483.858048
 30
0.0
  0
SPLINE
  5
179
100
AcDbEntity
  8
CUT
 62
1
100
AcDbSpline
 70
8
 71
3
 72
8
 73
4
 74
0
 40
0
 40
0
 40
0
 40
0
 40
1
 40
1
 40
1
 40
1
 10
701.985453
 20
483.857990
 30
0.0
 10
701.985453
 20
477.169978
 30
0.0
 10
698.417441
 20
470.990000
 30
0.0
 10
692.625453
 20
467.645995
 30
0.0
  0
SPLINE
  5
17a
100
AcDbEntity
  8
CUT
 62
1
100
AcDbSpline
 70
8
 71
3
 72
8
 73
4
 74
0
 40
0
 40
0
 40
0
 40
0
 40
1
 40
1
 40
1
 40
1
 10
692.625453
 20
467.645995
 30
0.0
 10
686.833465
 20
464.301989
 30
0.0
 10
679.697442
 20
464.301989
 30
0.0
 10
673.905454
 20
467.645995
 30
0.0
  0
SPLINE
  5
17b
100
AcDbEntity
  8
CUT
 62
1
100
AcDbSpline
 70
8
 71
3
 72
8
 73
4
 74
0
 40
0
 40
0
 40
0
 40
0
 40
1
 40
1
 40
1
 40
1
 10
673.905454
 20
467.645995
 30
0.0
 10
668.113466
 20
470.990000
 30
0.0
 10
664.545454
 20
477.169978
 30
0.0
 10
664.545454
 20
483.857990
 30
0.0
  0
SPLINE
  5
17c
100
AcDbEntity
  8
CUT
 62
1
100
AcDbSpline
 70
8
 71
3
 72
8
 73
4
 74
0
 40
0
 40
0
 40
0
 40
0
 40
1
 40
1
 40
1
 40
1
 10
664.545454
 20
483.857990
 30
0.0
 10
664.545454
 20
490.546001
 30
0.0
 10
668.113466
 20
496.725979
 30
0.0
 10
673.905454
 20
500.069985
 30
0.0
  0
SPLINE
  5
17d
100
AcDbEntity
  8
CUT
 62
1
100
AcDbSpline
 70
8
 71
3
 72
8
 73
4
 74
0
 40
0
 40
0
 40
0
 40
0
 40
1
 40
1
 40
1
 40
1
 10
673.905454
 20
500.069985
 30
0.0
 10
679.697442
 20
503.413991
 30
0.0
 10
686.833465
 20
503.413991
 30
0.0
 10
692.625453
 20
500.069985
 30
0.0
  0
SPLINE
  5
17e
100
AcDbEntity
  8
CUT
 62
1
100
AcDbSpline
 70
8
 71
3
 72
8
 73
4
 74
0
 40
0
 40
0
 40
0
 40
0
 40
1
 40
1
 40
1
 40
1
 10
692.625453
 20
500.069985
 30
0.0
 10
698.417441
 20
496.725979
 30
0.0
 10
701.985453
 20
490.546001
 30
0.0
 10
701.985453
 20
483.857990
 30
0.0
  0
LWPOLYLINE
  5
17f
100
AcDbEntity
  8
CUT
 62
1
100
AcDbPolyline
 90
1
 70
1
 10
701.922222
 20
591.312926
 30
0.0
  0
SPLINE
  5
180
100
AcDbEntity
  8
CUT
 62
1
100
AcDbSpline
 70
8
 71
3
 72
8
 73
4
 74
0
 40
0
 40
0
 40
0
 40
0
 40
1
 40
1
 40
1
 40
1
 10
778.739793
 20
591.177744
 30
0.0
 10
778.739792
 20
580.838974
 30
0.0
 10
770.358563
 20
572.457746
 30
0.0
 10
760.019793
 20
572.457746
 30
0.0
  0
SPLINE
  5
181
100
AcDbEntity
  8
CUT
 62
1
100
AcDbSpline
 70
8
 71
3
 72
8
 73
4
 74
0
 40
0
 40
0
 40
0
 40
0
 40
1
 40
1
 40
1
 40
1
 10
760.019793
 20
572.457746
 30
0.0
 10
749.681024
 20
572.457746
 30
0.0
 10
741.299795
 20
580.838974
 30
0.0
 10
741.299794
 20
591.177744
 30
0.0
  0
SPLINE
  5
182
100
AcDbEntity
  8
CUT
 62
1
100
AcDbSpline
 70
8
 71
3
 72
8
 73
4
 74
0
 40
0
 40
0
 40
0
 40
0
 40
1
 40
1
 40
1
 40
1
 10
741.299794
 20
591.177744
 30
0.0
 10
741.299795
 20
601.516514
 30
0.0
 10
749.681024
 20
609.897742
 30
0.0
 10
760.019793
 20
609.897742
 30
0.0
  0
SPLINE
  5
183
100
AcDbEntity
  8
CUT
 62
1
100
AcDbSpline
 70
8
 71
3
 72
8
 73
4
 74
0
 40
0
 40
0
 40
0
 40
0
 40
1
 40
1
 40
1
 40
1
 10
760.019793
 20
609.897742
 30
0.0
 10
770.358563
 20
609.897742
 30
0.0
 10
778.739792
 20
601.516514
 30
0.0
 10
778.739793
 20
591.177744
 30
0.0
  0
LWPOLYLINE
  5
184
100
AcDbEntity
  8
CUT
 62
1
100
AcDbPolyline
 90
1
 70
1
 10
701.985453
 20
483.857990
 30
0.0
  0
SPLINE
  5
185
100
AcDbEntity
  8
CUT
 62
1
100
AcDbSpline
 70
8
 71
3
 72
8
 73
4
 74
0
 40
0
 40
0
 40
0
 40
0
 40
1
 40
1
 40
1
 40
1
 10
778.820297
 20
483.921140
 30
0.0
 10
778.820297
 20
477.233128
 30
0.0
 10
775.252285
 20
471.053150
 30
0.0
 10
769.460297
 20
467.709145
 30
0.0
  0
SPLINE
  5
186
100
AcDbEntity
  8
CUT
 62
1
100
AcDbSpline
 70
8
 71
3
 72
8
 73
4
 74
0
 40
0
 40
0
 40
0
 40
0
 40
1
 40
1
 40
1
 40
1
 10
769.460297
 20
467.709145
 30
0.0
 10
763.668309
 20
464.365139
 30
0.0
 10
756.532286
 20
464.365139
 30
0.0
 10
750.740298
 20
467.709145
 30
0.0
  0
SPLINE
  5
187
100
AcDbEntity
  8
CUT
 62
1
100
AcDbSpline
 70
8
 71
3
 72
8
 73
4
 74
0
 40
0
 40
0
 40
0
 40
0
 40
1
 40
1
 40
1
 40
1
 10
750.740298
 20
467.709145
 30
0.0
 10
744.948310
 20
471.053150
 30
0.0
 10
741.380298
 20
477.233128
 30
0.0
 10
741.380298
 20
483.921140
 30
0.0
  0
SPLINE
  5
188
100
AcDbEntity
  8
CUT
 62
1
100
AcDbSpline
 70
8
 71
3
 72
8
 73
4
 74
0
 40
0
 40
0
 40
0
 40
0
 40
1
 40
1
 40
1
 40
1
 10
741.380298
 20
483.921140
 30
0.0
 10
741.380298
 20
490.609151
 30
0.0
 10
744.948310
 20
496.789129
 30
0.0
 10
750.740298
 20
500.133135
 30
0.0
  0
SPLINE
  5
189
100
AcDbEntity
  8
CUT
 62
1
100
AcDbSpline
 70
8
 71
3
 72
8
 73
4
 74
0
 40
0
 40
0
 40
0
 40
0
 40
1
 40
1
 40
1
 40
1
 10
750.740298
 20
500.133135
 30
0.0
 10
756.532286
 20
503.477141
 30
0.0
 10
763.668309
 20
503.477141
 30
0.0
 10
769.460297
 20
500.133135
 30
0.0
  0
SPLINE
  5
18a
100
AcDbEntity
  8
CUT
 62
1
100
AcDbSpline
 70
8
 71
3
 72
8
 73
4
 74
0
 40
0
 40
0
 40
0
 40
0
 40
1
 40
1
 40
1
 40
1
 10
769.460297
 20
500.133135
 30
0.0
 10
775.252285
 20
496.789129
 30
0.0
 10
778.820297
 20
490.609151
 30
0.0
 10
778.820297
 20
483.921140
 30
0.0
  0
LWPOLYLINE
  5
18b
100
AcDbEntity
  8
CUT
 62
1
100
AcDbPolyline
 90
1
 70
1
 10
778.739793
 20
591.177744
 30
0.0
  0
SPLINE
  5
18c
100
AcDbEntity
  8
CUT
 62
1
100
AcDbSpline
 70
8
 71
3
 72
8
 73
4
 74
0
 40
0
 40
0
 40
0
 40
0
 40
1
 40
1
 40
1
 40
1
 10
865.376347
 20
586.383901
 30
0.0
 10
865.376347
 20
577.981015
 30
0.0
 10
860.893461
 20
570.216429
 30
0.0
 10
853.616349
 20
566.014986
 30
0.0
  0
SPLINE
  5
18d
100
AcDbEntity
  8
CUT
 62
1
100
AcDbSpline
 70
8
 71
3
 72
8
 73
4
 74
0
 40
0
 40
0
 40
0
 40
0
 40
1
 40
1
 40
1
 40
1
 10
853.616349
 20
566.014986
 30
0.0
 10
846.339236
 20
561.813543
 30
0.0
 10
837.373464
 20
561.813543
 30
0.0
 10
830.096351
 20
566.014986
 30
0.0
  0
SPLINE
  5
18e
100
AcDbEntity
  8
CUT
 62
1
100
AcDbSpline
 70
8
 71
3
 72
8
 73
4
 74
0
 40
0
 40
0
 40
0
 40
0
 40
1
 40
1
 40
1
 40
1
 10
830.096351
 20
566.014986
 30
0.0
 10
822.819239
 20
570.216429
 30
0.0
 10
818.336353
 20
577.981015
 30
0.0
 10
818.336353
 20
586.383901
 30
0.0
  0
SPLINE
  5
18f
100
AcDbEntity
  8
CUT
 62
1
100
AcDbSpline
 70
8
 71
3
 72
8
 73
4
 74
0
 40
0
 40
0
 40
0
 40
0
 40
1
 40
1
 40
1
 40
1
 10
818.336353
 20
586.383901
 30
0.0
 10
818.336353
 20
594.786787
 30
0.0
 10
822.819239
 20
602.551374
 30
0.0
 10
830.096351
 20
606.752816
 30
0.0
  0
SPLINE
  5
190
100
AcDbEntity
  8
CUT
 62
1
100
AcDbSpline
 70
8
 71
3
 72
8
 73
4
 74
0
 40
0
 40
0
 40
0
 40
0
 40
1
 40
1
 40
1
 40
1
 10
830.096351
 20
606.752816
 30
0.0
 10
837.373464
 20
610.954259
 30
0.0
 10
846.339236
 20
610.954259
 30
0.0
 10
853.616349
 20
606.752816
 30
0.0
  0
SPLINE
  5
191
100
AcDbEntity
  8
CUT
 62
1
100
AcDbSpline
 70
8
 71
3
 72
8
 73
4
 74
0
 40
0
 40
0
 40
0
 40
0
 40
1
 40
1
 40
1
 40
1
 10
853.616349
 20
606.752816
 30
0.0
 10
860.893461
 20
602.551374
 30
0.0
 10
865.376347
 20
594.786787
 30
0.0
 10
865.376347
 20
586.383901
 30
0.0
  0
LWPOLYLINE
  5
192
100
AcDbEntity
  8
CUT
 62
1
100
AcDbPolyline
 90
1
 70
1
 10
778.820297
 20
483.921140
 30
0.0
  0
SPLINE
  5
193
100
AcDbEntity
  8
CUT
 62
1
100
AcDbSpline
 70
8
 71
3
 72
8
 73
4
 74
0
 40
0
 40
0
 40
0
 40
0
 40
1
 40
1
 40
1
 40
1
 10
914.277688
 20
500.607554
 30
0.0
 10
914.277688
 20
487.917481
 30
0.0
 10
907.507614
 20
476.191370
 30
0.0
 10
896.517689
 20
469.846334
 30
0.0
  0
SPLINE
  5
194
100
AcDbEntity
  8
CUT
 62
1
100
AcDbSpline
 70
8
 71
3
 72
8
 73
4
 74
0
 40
0
 40
0
 40
0
 40
0
 40
1
 40
1
 40
1
 40
1
 10
896.517689
 20
469.846334
 30
0.0
 10
885.527763
 20
463.501297
 30
0.0
 10
871.987617
 20
463.501297
 30
0.0
 10
860.997691
 20
469.846334
 30
0.0
  0
SPLINE
  5
195
100
AcDbEntity
  8
CUT
 62
1
100
AcDbSpline
 70
8
 71
3
 72
8
 73
4
 74
0
 40
0
 40
0
 40
0
 40
0
 40
1
 40
1
 40
1
 40
1
 10
860.997691
 20
469.846334
 30
0.0
 10
850.007766
 20
476.191370
 30
0.0
 10
843.237692
 20
487.917481
 30
0.0
 10
843.237692
 20
500.607554
 30
0.0
  0
SPLINE
  5
196
100
AcDbEntity
  8
CUT
 62
1
100
AcDbSpline
 70
8
 71
3
 72
8
 73
4
 74
0
 40
0
 40
0
 40
0
 40
0
 40
1
 40
1
 40
1
 40
1
 10
843.237692
 20
500.607554
 30
0.0
 10
843.237692
 20
513.297627
 30
0.0
 10
850.007766
 20
525.023738
 30
0.0
 10
860.997691
 20
531.368774
 30
0.0
  0
SPLINE
  5
197
100
AcDbEntity
  8
CUT
 62
1
100
AcDbSpline
 70
8
 71
3
 72
8
 73
4
 74
0
 40
0
 40
0
 40
0
 40
0
 40
1
 40
1
 40
1
 40
1
 10
860.997691
 20
531.368774
 30
0.0
 10
871.987617
 20
537.713810
 30
0.0
 10
885.527763
 20
537.713810
 30
0.0
 10
896.517689
 20
531.368774
 30
0.0
  0
SPLINE
  5
198
100
AcDbEntity
  8
CUT
 62
1
100
AcDbSpline
 70
8
 71
3
 72
8
 73
4
 74
0
 40
0
 40
0
 40
0
 40
0
 40
1
 40
1
 40
1
 40
1
 10
896.517689
 20
531.368774
 30
0.0
 10
907.507614
 20
525.023738
 30
0.0
 10
914.277688
 20
513.297627
 30
0.0
 10
914.277688
 20
500.607554
 30
0.0
  0
LWPOLYLINE
  5
199
100
AcDbEntity
  8
CUT
 62
1
100
AcDbPolyline
 90
1
 70
1
 10
865.376347
 20
586.383901
 30
0.0
  0
LWPOLYLINE
  5
19a
100
AcDbEntity
  8
CUT
 62
1
100
AcDbPolyline
 90
1
 70
1
 10
914.277688
 20
500.607554
 30
0.0
  0
LWPOLYLINE
  5
19b
100
AcDbEntity
  8
CUT
 62
1
100
AcDbPolyline
 90
252
 70
1
 10
20.642305
 20
201.582611
 30
0.0
 10
29.771866
 20
201.582611
 30
0.0
 10
29.771866
 20
181.422612
 30
0.0
 10
49.951103
 20
181.422612
 30
0.0
 10
49.951103
 20
201.582611
 30
0.0
 10
68.210264
 20
201.582611
 30
0.0
 10
68.210264
 20
181.422612
 30
0.0
 10
88.389501
 20
181.422612
 30
0.0
 10
88.389501
 20
201.582611
 30
0.0
 10
106.648700
 20
201.582611
 30
0.0
 10
106.648700
 20
181.422612
 30
0.0
 10
126.827862
 20
181.422612
 30
0.0
 10
126.827862
 20
201.582611
 30
0.0
 10
145.087099
 20
201.582611
 30
0.0
 10
145.087099
 20
181.422612
 30
0.0
 10
165.266260
 20
181.422612
 30
0.0
 10
165.266260
 20
201.582611
 30
0.0
 10
183.525497
 20
201.582611
 30
0.0
 10
183.525497
 20
181.422612
 30
0.0
 10
203.704696
 20
181.422612
 30
0.0
 10
203.704696
 20
201.582611
 30
0.0
 10
221.963895
 20
201.582611
 30
0.0
 10
221.963895
 20
181.422612
 30
0.0
 10
242.143094
 20
181.422612
 30
0.0
 10
242.143094
 20
201.582611
 30
0.0
 10
260.402293
 20
201.582611
 30
0.0
 10
260.402293
 20
181.422612
 30
0.0
 10
280.581492
 20
181.422612
 30
0.0
 10
280.581492
 20
201.582611
 30
0.0
 10
298.840691
 20
201.582611
 30
0.0
 10
298.840691
 20
181.422612
 30
0.0
 10
319.019852
 20
181.422612
 30
0.0
 10
319.019852
 20
201.582611
 30
0.0
 10
337.279089
 20
201.582611
 30
0.0
 10
337.279089
 20
181.422612
 30
0.0
 10
357.458251
 20
181.422612
 30
0.0
 10
357.458251
 20
201.582611
 30
0.0
 10
375.717450
 20
201.582611
 30
0.0
 10
375.717450
 20
181.422612
 30
0.0
 10
395.896649
 20
181.422612
 30
0.0
 10
395.896649
 20
201.582611
 30
0.0
 10
414.155848
 20
201.582611
 30
0.0
 10
414.155848
 20
181.422612
 30
0.0
 10
434.335047
 20
181.422612
 30
0.0
 10
434.335047
 20
201.582611
 30
0.0
 10
452.594246
 20
201.582611
 30
0.0
 10
452.594246
 20
181.422612
 30
0.0
 10
472.773483
 20
181.422612
 30
0.0
 10
472.773483
 20
201.582611
 30
0.0
 10
491.032644
 20
201.582611
 30
0.0
 10
491.032644
 20
181.422612
 30
0.0
 10
511.211843
 20
181.422612
 30
0.0
 10
511.211843
 20
201.582611
 30
0.0
 10
529.471080
 20
201.582611
 30
0.0
 10
529.471080
 20
181.422612
 30
0.0
 10
549.650241
 20
181.422612
 30
0.0
 10
549.650241
 20
201.582611
 30
0.0
 10
567.909478
 20
201.582611
 30
0.0
 10
567.909478
 20
181.422612
 30
0.0
 10
588.088639
 20
181.422612
 30
0.0
 10
588.088639
 20
201.582611
 30
0.0
 10
606.347839
 20
201.582611
 30
0.0
 10
606.347839
 20
181.422612
 30
0.0
 10
626.527075
 20
181.422612
 30
0.0
 10
626.527075
 20
201.582611
 30
0.0
 10
644.786274
 20
201.582611
 30
0.0
 10
644.786274
 20
181.422612
 30
0.0
 10
664.965473
 20
181.422612
 30
0.0
 10
664.965473
 20
201.582611
 30
0.0
 10
683.224673
 20
201.582611
 30
0.0
 10
683.224673
 20
181.422612
 30
0.0
 10
703.403872
 20
181.422612
 30
0.0
 10
703.403872
 20
201.582611
 30
0.0
 10
721.663071
 20
201.582611
 30
0.0
 10
721.663071
 20
181.422612
 30
0.0
 10
741.842270
 20
181.422612
 30
0.0
 10
741.842270
 20
201.582611
 30
0.0
 10
760.101469
 20
201.582611
 30
0.0
 10
760.101469
 20
181.422612
 30
0.0
 10
780.280668
 20
181.422612
 30
0.0
 10
780.280668
 20
201.582611
 30
0.0
 10
798.539867
 20
201.582611
 30
0.0
 10
798.539867
 20
181.422612
 30
0.0
 10
818.719066
 20
181.422612
 30
0.0
 10
818.719066
 20
201.582611
 30
0.0
 10
836.978265
 20
201.582611
 30
0.0
 10
836.978265
 20
181.422612
 30
0.0
 10
857.157464
 20
181.422612
 30
0.0
 10
857.157464
 20
201.582611
 30
0.0
 10
875.416663
 20
201.582611
 30
0.0
 10
875.416663
 20
181.422612
 30
0.0
 10
895.595862
 20
181.422612
 30
0.0
 10
895.595862
 20
201.582611
 30
0.0
 10
913.855062
 20
201.582611
 30
0.0
 10
913.855062
 20
181.422612
 30
0.0
 10
934.034261
 20
181.422612
 30
0.0
 10
934.034261
 20
201.582611
 30
0.0
 10
952.293460
 20
201.582611
 30
0.0
 10
952.293460
 20
181.422612
 30
0.0
 10
972.472659
 20
181.422612
 30
0.0
 10
972.472659
 20
201.582611
 30
0.0
 10
981.602258
 20
201.582611
 30
0.0
 10
981.602258
 20
209.142610
 30
0.0
 10
1001.762257
 20
209.142610
 30
0.0
 10
1001.762257
 20
226.182610
 30
0.0
 10
981.602258
 20
226.182610
 30
0.0
 10
981.602258
 20
241.302609
 30
0.0
 10
1001.762257
 20
241.302609
 30
0.0
 10
1001.762257
 20
258.342608
 30
0.0
 10
981.602258
 20
258.342608
 30
0.0
 10
981.602258
 20
273.462607
 30
0.0
 10
1001.762257
 20
273.462607
 30
0.0
 10
1001.762257
 20
290.502606
 30
0.0
 10
981.602258
 20
290.502606
 30
0.0
 10
981.602258
 20
305.622606
 30
0.0
 10
1001.762257
 20
305.622606
 30
0.0
 10
1001.762257
 20
322.662605
 30
0.0
 10
981.602258
 20
322.662605
 30
0.0
 10
981.602258
 20
337.782604
 30
0.0
 10
1001.762257
 20
337.782604
 30
0.0
 10
1001.762257
 20
354.822603
 30
0.0
 10
981.602258
 20
354.822603
 30
0.0
 10
981.602258
 20
369.942603
 30
0.0
 10
1001.762257
 20
369.942603
 30
0.0
 10
1001.762257
 20
386.982602
 30
0.0
 10
981.602258
 20
386.982602
 30
0.0
 10
981.602258
 20
394.542601
 30
0.0
 10
972.472659
 20
394.542601
 30
0.0
 10
972.472659
 20
414.702600
 30
0.0
 10
952.293460
 20
414.702600
 30
0.0
 10
952.293460
 20
394.542601
 30
0.0
 10
934.034261
 20
394.542601
 30
0.0
 10
934.034261
 20
414.702600
 30
0.0
 10
913.855062
 20
414.702600
 30
0.0
 10
913.855062
 20
394.542601
 30
0.0
 10
895.595862
 20
394.542601
 30
0.0
 10
895.595862
 20
414.702600
 30
0.0
 10
875.416663
 20
414.702600
 30
0.0
 10
875.416663
 20
394.542601
 30
0.0
 10
857.157464
 20
394.542601
 30
0.0
 10
857.157464
 20
414.702600
 30
0.0
 10
836.978265
 20
414.702600
 30
0.0
 10
836.978265
 20
394.542601
 30
0.0
 10
818.719066
 20
394.542601
 30
0.0
 10
818.719066
 20
414.702600
 30
0.0
 10
798.539867
 20
414.702600
 30
0.0
 10
798.539867
 20
394.542601
 30
0.0
 10
780.280668
 20
394.542601
 30
0.0
 10
780.280668
 20
414.702600
 30
0.0
 10
760.101469
 20
414.702600
 30
0.0
 10
760.101469
 20
394.542601
 30
0.0
 10
741.842270
 20
394.542601
 30
0.0
 10
741.842270
 20
414.702600
 30
0.0
 10
721.663071
 20
414.702600
 30
0.0
 10
721.663071
 20
394.542601
 30
0.0
 10
703.403872
 20
394.542601
 30
0.0
 10
703.403872
 20
414.702600
 30
0.0
 10
683.224673
 20
414.702600
 30
0.0
 10
683.224673
 20
394.542601
 30
0.0
 10
664.965473
 20
394.542601
 30
0.0
 10
664.965473
 20
414.702600
 30
0.0
 10
644.786274
 20
414.702600
 30
0.0
 10
644.786274
 20
394.542601
 30
0.0
 10
626.527075
 20
394.542601
 30
0.0
 10
626.527075
 20
414.702600
 30
0.0
 10
606.347876
 20
414.702600
 30
0.0
 10
606.347876
 20
394.542601
 30
0.0
 10
588.088677
 20
394.542601
 30
0.0
 10
588.088677
 20
414.702600
 30
0.0
 10
567.909478
 20
414.702600
 30
0.0
 10
567.909478
 20
394.542601
 30
0.0
 10
549.650279
 20
394.542601
 30
0.0
 10
549.650279
 20
414.702600
 30
0.0
 10
529.471080
 20
414.702600
 30
0.0
 10
529.471080
 20
394.542601
 30
0.0
 10
511.211881
 20
394.542601
 30
0.0
 10
511.211881
 20
414.702600
 30
0.0
 10
491.032682
 20
414.702600
 30
0.0
 10
491.032682
 20
394.542601
 30
0.0
 10
472.773483
 20
394.542601
 30
0.0
 10
472.773483
 20
414.702600
 30
0.0
 10
452.594284
 20
414.702600
 30
0.0
 10
452.594284
 20
394.542601
 30
0.0
 10
434.335085
 20
394.542601
 30
0.0
 10
434.335085
 20
414.702600
 30
0.0
 10
414.155886
 20
414.702600
 30
0.0
 10
414.155886
 20
394.542601
 30
0.0
 10
395.896686
 20
394.542601
 30
0.0
 10
395.896686
 20
414.702600
 30
0.0
 10
375.717487
 20
414.702600
 30
0.0
 10
375.717487
 20
394.542601
 30
0.0
 10
357.458288
 20
394.542601
 30
0.0
 10
357.458288
 20
414.702600
 30
0.0
 10
337.279089
 20
414.702600
 30
0.0
 10
337.279089
 20
394.542601
 30
0.0
 10
319.019890
 20
394.542601
 30
0.0
 10
319.019890
 20
414.702600
 30
0.0
 10
298.840691
 20
414.702600
 30
0.0
 10
298.840691
 20
394.542601
 30
0.0
 10
280.581492
 20
394.542601
 30
0.0
 10
280.581492
 20
414.702600
 30
0.0
 10
260.402293
 20
414.702600
 30
0.0
 10
260.402293
 20
394.542601
 30
0.0
 10
242.143094
 20
394.542601
 30
0.0
 10
242.143094
 20
414.702600
 30
0.0
 10
221.963895
 20
414.702600
 30
0.0
 10
221.963895
 20
394.542601
 30
0.0
 10
203.704696
 20
394.542601
 30
0.0
 10
203.704696
 20
414.702600
 30
0.0
 10
183.525459
 20
414.702600
 30
0.0
 10
183.525459
 20
394.542601
 30
0.0
 10
165.266260
 20
394.542601
 30
0.0
 10
165.266260
 20
414.702600
 30
0.0
 10
145.087099
 20
414.702600
 30
0.0
 10
145.087099
 20
394.542601
 30
0.0
 10
126.827862
 20
394.542601
 30
0.0
 10
126.827862
 20
414.702600
 30
0.0
 10
106.648700
 20
414.702600
 30
0.0
 10
106.648700
 20
394.542601
 30
0.0
 10
88.389463
 20
394.542601
 30
0.0
 10
88.389463
 20
414.702600
 30
0.0
 10
68.210264
 20
414.702600
 30
0.0
 10
68.210264
 20
394.542601
 30
0.0
 10
49.951103
 20
394.542601
 30
0.0
 10
49.951103
 20
414.702600
 30
0.0
 10
29.771866
 20
414.702600
 30
0.0
 10
29.771866
 20
394.542601
 30
0.0
 10
20.642267
 20
394.542601
 30
0.0
 10
20.642267
 20
386.982602
 30
0.0
 10
0.482268
 20
386.982602
 30
0.0
 10
0.482268
 20
369.942603
 30
0.0
 10
20.642305
 20
369.942603
 30
0.0
 10
20.642305
 20
354.822603
 30
0.0
 10
0.482268
 20
354.822603
 30
0.0
 10
0.482268
 20
337.782604
 30
0.0
 10
20.642305
 20
337.782604
 30
0.0
 10
20.642305
 20
322.662605
 30
0.0
 10
0.482268
 20
322.662605
 30
0.0
 10
0.482268
 20
305.622606
 30
0.0
 10
20.642305
 20
305.622606
 30
0.0
 10
20.642305
 20
290.502606
 30
0.0
 10
0.482268
 20
290.502606
 30
0.0
 10
0.482268
 20
273.462607
 30
0.0
 10
20.642305
 20
273.462607
 30
0.0
 10
20.642305
 20
258.342608
 30
0.0
 10
0.482268
 20
258.342608
 30
0.0
 10
0.482268
 20
241.302609
 30
0.0
 10
20.642305
 20
241.302609
 30
0.0
 10
20.642305
 20
226.182610
 30
0.0
 10
0.482268
 20
226.182610
 30
0.0
 10
0.482268
 20
209.142610
 30
0.0
 10
20.642305
 20
209.142610
 30
0.0
  0
LWPOLYLINE
  5
19c
100
AcDbEntity
  8
CUT
 62
1
100
AcDbPolyline
 90
4
 70
1
 10
39.842190
 20
243.168887
 30
0.0
 10
59.042187
 20
243.168887
 30
0.0
 10
59.042187
 20
274.334867
 30
0.0
 10
39.842190
 20
274.334867
 30
0.0
  0
LWPOLYLINE
  5
19d
100
AcDbEntity
  8
CUT
 62
1
100
AcDbPolyline
 90
4
 70
1
 10
39.842304
 20
295.454925
 30
0.0
 10
59.042300
 20
295.454925
 30
0.0
 10
59.042300
 20
326.620905
 30
0.0
 10
39.842304
 20
326.620905
 30
0.0
  0
LWPOLYLINE
  5
19e
100
AcDbEntity
  8
CUT
 62
1
100
AcDbPolyline
 90
4
 70
1
 10
39.842304
 20
347.740846
 30
0.0
 10
59.042300
 20
347.740846
 30
0.0
 10
59.042300
 20
378.906826
 30
0.0
 10
39.842304
 20
378.906826
 30
0.0
  0
LWPOLYLINE
  5
19f
100
AcDbEntity
  8
CUT
 62
1
100
AcDbPolyline
 90
4
 70
1
 10
962.402259
 20
243.203575
 30
0.0
 10
943.202262
 20
243.203575
 30
0.0
 10
943.202262
 20
274.369555
 30
0.0
 10
962.402259
 20
274.369555
 30
0.0
  0
LWPOLYLINE
  5
1a0
100
AcDbEntity
  8
CUT
 62
1
100
AcDbPolyline
 90
4
 70
1
 10
962.402259
 20
295.489496
 30
0.0
 10
943.202262
 20
295.489496
 30
0.0
 10
943.202262
 20
326.655476
 30
0.0
 10
962.402259
 20
326.655476
 30
0.0
  0
SPLINE
  5
1a1
100
AcDbEntity
  8
CUT
 62
1
100
AcDbSpline
 70
8
 71
3
 72
8
 73
4
 74
0
 40
0
 40
0
 40
0
 40
0
 40
1
 40
1
 40
1
 40
1
 10
125.529178
 20
298.094985
 30
0.0
 10
125.529177
 20
301.143596
 30
0.0
 10
123.057790
 20
303.614984
 30
0.0
 10
120.009178
 20
303.614984
 30
0.0
  0
SPLINE
  5
1a2
100
AcDbEntity
  8
CUT
 62
1
100
AcDbSpline
 70
8
 71
3
 72
8
 73
4
 74
0
 40
0
 40
0
 40
0
 40
0
 40
1
 40
1
 40
1
 40
1
 10
120.009178
 20
303.614984
 30
0.0
 10
116.960567
 20
303.614984
 30
0.0
 10
114.489179
 20
301.143596
 30
0.0
 10
114.489179
 20
298.094985
 30
0.0
  0
SPLINE
  5
1a3
100
AcDbEntity
  8
CUT
 62
1
100
AcDbSpline
 70
8
 71
3
 72
8
 73
4
 74
0
 40
0
 40
0
 40
0
 40
0
 40
1
 40
1
 40
1
 40
1
 10
114.489179
 20
298.094985
 30
0.0
 10
114.489179
 20
295.046374
 30
0.0
 10
116.960567
 20
292.574987
 30
0.0
 10
120.009178
 20
292.574987
 30
0.0
  0
SPLINE
  5
1a4
100
AcDbEntity
  8
CUT
 62
1
100
AcDbSpline
 70
8
 71
3
 72
8
 73
4
 74
0
 40
0
 40
0
 40
0
 40
0
 40
1
 40
1
 40
1
 40
1
 10
120.009178
 20
292.574987
 30
0.0
 10
123.057790
 20
292.574987
 30
0.0
 10
125.529177
 20
295.046374
 30
0.0
 10
125.529178
 20
298.094985
 30
0.0
  0
LWPOLYLINE
  5
1a5
100
AcDbEntity
  8
CUT
 62
1
100
AcDbPolyline
 90
4
 70
1
 10
962.402259
 20
347.775535
 30
0.0
 10
943.202262
 20
347.775535
 30
0.0
 10
943.202262
 20
378.941515
 30
0.0
 10
962.402259
 20
378.941515
 30
0.0
  0
SPLINE
  5
1a6
100
AcDbEntity
  8
CUT
 62
1
100
AcDbSpline
 70
8
 71
3
 72
8
 73
4
 74
0
 40
0
 40
0
 40
0
 40
0
 40
1
 40
1
 40
1
 40
1
 10
887.755384
 20
298.028896
 30
0.0
 10
887.755384
 20
300.001002
 30
0.0
 10
886.703278
 20
301.823303
 30
0.0
 10
884.995384
 20
302.809356
 30
0.0
  0
SPLINE
  5
1a7
100
AcDbEntity
  8
CUT
 62
1
100
AcDbSpline
 70
8
 71
3
 72
8
 73
4
 74
0
 40
0
 40
0
 40
0
 40
0
 40
1
 40
1
 40
1
 40
1
 10
884.995384
 20
302.809356
 30
0.0
 10
883.287490
 20
303.795409
 30
0.0
 10
881.183278
 20
303.795409
 30
0.0
 10
879.475384
 20
302.809356
 30
0.0
  0
SPLINE
  5
1a8
100
AcDbEntity
  8
CUT
 62
1
100
AcDbSpline
 70
8
 71
3
 72
8
 73
4
 74
0
 40
0
 40
0
 40
0
 40
0
 40
1
 40
1
 40
1
 40
1
 10
879.475384
 20
302.809356
 30
0.0
 10
877.767491
 20
301.823303
 30
0.0
 10
876.715385
 20
300.001002
 30
0.0
 10
876.715385
 20
298.028896
 30
0.0
  0
SPLINE
  5
1a9
100
AcDbEntity
  8
CUT
 62
1
100
AcDbSpline
 70
8
 71
3
 72
8
 73
4
 74
0
 40
0
 40
0
 40
0
 40
0
 40
1
 40
1
 40
1
 40
1
 10
876.715385
 20
298.028896
 30
0.0
 10
876.715385
 20
296.056791
 30
0.0
 10
877.767491
 20
294.234489
 30
0.0
 10
879.475384
 20
293.248436
 30
0.0
  0
SPLINE
  5
1aa
100
AcDbEntity
  8
CUT
 62
1
100
AcDbSpline
 70
8
 71
3
 72
8
 73
4
 74
0
 40
0
 40
0
 40
0
 40
0
 40
1
 40
1
 40
1
 40
1
 10
879.475384
 20
293.248436
 30
0.0
 10
881.183278
 20
292.262383
 30
0.0
 10
883.287490
 20
292.262383
 30
0.0
 10
884.995384
 20
293.248436
 30
0.0
  0
SPLINE
  5
1ab
100
AcDbEntity
  8
CUT
 62
1
100
AcDbSpline
 70
8
 71
3
 72
8
 73
4
 74
0
 40
0
 40
0
 40
0
 40
0
 40
1
 40
1
 40
1
 40
1
 10
884.995384
 20
293.248436
 30
0.0
 10
886.703278
 20
294.234489
 30
0.0
 10
887.755384
 20
296.056791
 30
0.0
 10
887.755384
 20
298.028896
 30
0.0
  0
LWPOLYLINE
  5
1ac
100
AcDbEntity
  8
CUT
 62
1
100
AcDbPolyline
 90
1
 70
1
 10
125.529178
 20
298.094985
 30
0.0
  0
LWPOLYLINE
  5
1ad
100
AcDbEntity
  8
CUT
 62
1
100
AcDbPolyline
 90
1
 70
1
 10
887.755384
 20
298.028896
 30
0.0
  0
LWPOLYLINE
  5
1ae
100
AcDbEntity
  8
CUT
 62
1
100
AcDbPolyline
 90
29
 70
1
 10
172.495929
 20
131.688627
 30
0.0
 10
172.496269
 20
152.330894
 30
0.0
 10
172.496609
 20
172.490591
 30
0.0
 10
139.376573
 20
172.491120
 30
0.0
 10
139.376270
 20
152.331348
 30
0.0
 10
120.213349
 20
152.331612
 30
0.0
 10
120.213689
 20
172.494710
 30
0.0
 10
87.093615
 20
172.495240
 30
0.0
 10
87.093350
 20
152.332179
 30
0.0
 10
67.933452
 20
152.332444
 30
0.0
 10
67.995814
 20
155.558837
 30
0.0
 10
67.996079
 20
172.494068
 30
0.0
 10
34.876080
 20
172.494521
 30
0.0
 10
34.875778
 20
152.333011
 30
0.0
 10
20.644534
 20
152.333275
 30
0.0
 10
20.644308
 20
138.102032
 30
0.0
 10
0.482835
 20
138.102296
 30
0.0
 10
0.482305
 20
104.982351
 30
0.0
 10
17.417498
 20
104.981973
 30
0.0
 10
20.643779
 20
105.044335
 30
0.0
 10
20.643476
 20
85.884172
 30
0.0
 10
0.480529
 20
85.884512
 30
0.0
 10
0.480000
 20
52.764476
 30
0.0
 10
20.642947
 20
52.764174
 30
0.0
 10
20.642682
 20
33.601252
 30
0.0
 10
0.482948
 20
33.601516
 30
0.0
 10
0.482457
 20
0.481556
 30
0.0
 10
20.642116
 20
0.481253
 30
0.0
 10
41.284307
 20
0.480876
 30
0.0
  0
LWPOLYLINE
  5
1af
100
AcDbEntity
  8
CUT
 62
1
100
AcDbPolyline
 90
29
 70
1
 10
223.552657
 20
172.494726
 30
0.0
 10
244.194886
 20
172.494726
 30
0.0
 10
264.354620
 20
172.494726
 30
0.0
 10
264.354620
 20
139.374731
 30
0.0
 10
244.194886
 20
139.374731
 30
0.0
 10
244.194886
 20
120.211805
 30
0.0
 10
264.357871
 20
120.211805
 30
0.0
 10
264.357871
 20
87.091807
 30
0.0
 10
244.194886
 20
87.091807
 30
0.0
 10
244.194886
 20
67.931871
 30
0.0
 10
247.421204
 20
67.994233
 30
0.0
 10
264.356397
 20
67.994233
 30
0.0
 10
264.356397
 20
34.874235
 30
0.0
 10
244.194886
 20
34.874235
 30
0.0
 10
244.194886
 20
20.642991
 30
0.0
 10
229.963605
 20
20.642991
 30
0.0
 10
229.963605
 20
0.481518
 30
0.0
 10
196.843644
 20
0.481518
 30
0.0
 10
196.843644
 20
17.416635
 30
0.0
 10
196.906006
 20
20.642991
 30
0.0
 10
177.745881
 20
20.642991
 30
0.0
 10
177.745881
 20
0.480006
 30
0.0
 10
144.625883
 20
0.480006
 30
0.0
 10
144.625883
 20
20.642991
 30
0.0
 10
125.462923
 20
20.642991
 30
0.0
 10
125.462923
 20
0.483257
 30
0.0
 10
92.342925
 20
0.483257
 30
0.0
 10
92.342925
 20
20.642991
 30
0.0
 10
92.342925
 20
41.285182
 30
0.0
  0
ENDSEC
  0
SECTION
  2
OBJECTS
  0
DICTIONARY
  5
C
330
0
100
AcDbDictionary
  3
ACAD_GROUP
350
D
  3
ACAD_MLINESTYLE
350
17
  0
DICTIONARY
  5
D
330
C
100
AcDbDictionary
  0
DICTIONARY
  5
1A
330
C
100
AcDbDictionary
  0
DICTIONARY
  5
17
330
C
100
AcDbDictionary
  3
STANDARD
350
18
  0
DICTIONARY
  5
19
330
C
100
AcDbDictionary
  0
ENDSEC
  0
EOF
