<?xml version="1.0" encoding="UTF-8" standalone="no"?>
<!-- Created with Inkscape (http://www.inkscape.org/) -->

<svg
   xmlns:dc="http://purl.org/dc/elements/1.1/"
   xmlns:cc="http://creativecommons.org/ns#"
   xmlns:rdf="http://www.w3.org/1999/02/22-rdf-syntax-ns#"
   xmlns:svg="http://www.w3.org/2000/svg"
   xmlns="http://www.w3.org/2000/svg"
   xmlns:sodipodi="http://sodipodi.sourceforge.net/DTD/sodipodi-0.dtd"
   xmlns:inkscape="http://www.inkscape.org/namespaces/inkscape"
   width="10.440024in"
   height="6.8192229in"
   viewBox="0 0 265.17662 173.20827"
   version="1.1"
   id="svg8"
   inkscape:version="0.92.4 (5da689c313, 2019-01-14)"
   sodipodi:docname="Precision Driver Holder.svg">
  <defs
     id="defs2" />
  <sodipodi:namedview
     id="base"
     pagecolor="#ffffff"
     bordercolor="#666666"
     borderopacity="1.0"
     inkscape:pageopacity="0.0"
     inkscape:pageshadow="2"
     inkscape:zoom="0.49497475"
     inkscape:cx="1297.6434"
     inkscape:cy="575.56965"
     inkscape:document-units="in"
     inkscape:current-layer="layer1"
     showgrid="false"
     units="in"
     showguides="true"
     inkscape:guide-bbox="true"
     fit-margin-top="0"
     fit-margin-left="0"
     fit-margin-right="0"
     fit-margin-bottom="0"
     inkscape:window-width="2560"
     inkscape:window-height="1057"
     inkscape:window-x="-8"
     inkscape:window-y="-8"
     inkscape:window-maximized="1" />
  <metadata
     id="metadata5">
    <rdf:RDF>
      <cc:Work
         rdf:about="">
        <dc:format>image/svg+xml</dc:format>
        <dc:type
           rdf:resource="http://purl.org/dc/dcmitype/StillImage" />
        <dc:title></dc:title>
      </cc:Work>
    </rdf:RDF>
  </metadata>
  <g
     inkscape:label="CUT"
     inkscape:groupmode="layer"
     id="layer1"
     transform="translate(515.10051,40.8336)">
    <path
       inkscape:connector-curvature="0"
       d="m -514.9729,-35.3726 v -5.334 h 8.00354 v 5.334 h 4.83108 v -5.334 h 5.33908 v 5.334 h 4.83108 v -5.334 h 5.33907 v 5.334 h 4.83109 v -5.334 h 5.33907 v 5.334 h 4.83109 v -5.334 h 5.33908 v 5.334 h 4.83107 v -5.334 h 5.33909 v 5.334 h 4.83107 v -5.334 h 5.33909 v 5.334 h 4.83108 v -5.334 h 5.33908 v 5.334 h 4.83108 v -5.334 h 5.33907 v 5.334 h 4.83109 v -5.334 h 5.33907 v 5.334 h 4.83108 v -5.334 h 5.33909 v 5.334 h 4.83107 v -5.334 h 5.33909 v 5.334 h 4.83107 v -5.334 h 5.33909 v 5.334 h 4.83108 v -5.334 h 5.33907 v 5.334 h 4.83109 v -5.334 h 5.33907 v 5.334 h 4.83109 v -5.334 h 5.33907 v 5.334 h 4.83108 v -5.334 h 5.33908 v 5.334 h 4.83108 v -5.334 h 5.33908 v 5.334 h 4.83108 v -5.334 h 5.33908 v 5.334 h 4.83108 v -5.334 h 5.33908 v 5.334 h 4.83108 v -5.334 h 5.33908 v 5.334 h 4.83108 v -5.334 h 5.33908 v 5.334 h 4.83108 v -5.334 h 5.33908 v 5.334 h 4.83108 v -5.334 h 5.33908 v 5.334 h 4.83108 v -5.334 h 5.33908 v 5.334 h 4.83108 v -5.334 h 8.00354 v 7.58825 h -5.334 v 4.0005 h 5.334 v 4.5085 h -5.334 v 4.0005 h 5.334 v 4.5085 h -5.334 v 4.0005 h 5.334 v 4.5085 h -5.334 v 4.0005 h 5.334 v 4.5085 h -5.334 v 4.0005 h 5.334 v 4.5085 h -5.334 v 4.0005 h 5.334 v 7.58825 h -8.00354 v -5.334 h -4.83107 v 5.334 h -5.33908 v -5.334 h -4.83109 v 5.334 h -5.33908 v -5.334 h -4.83108 v 5.334 h -5.33908 v -5.334 h -4.83108 v 5.334 h -5.33908 v -5.334 h -4.83108 v 5.334 h -5.33908 v -5.334 h -4.83108 v 5.334 h -5.33908 v -5.334 h -4.83108 v 5.334 h -5.33908 v -5.334 h -4.83108 v 5.334 h -5.33908 v -5.334 h -4.83108 v 5.334 h -5.33908 v -5.334 h -4.83108 v 5.334 h -5.33907 v -5.334 h -4.83109 v 5.334 h -5.33907 v -5.334 h -4.83108 v 5.334 h -5.33908 v -5.334 h -4.83108 v 5.334 h -5.33909 v -5.334 h -4.83107 v 5.334 h -5.33909 v -5.334 h -4.83107 v 5.334 h -5.33908 v -5.334 h -4.83109 v 5.334 h -5.33907 v -5.334 h -4.83108 v 5.334 h -5.33908 v -5.334 h -4.83108 v 5.334 h -5.33908 v -5.334 h -4.83108 v 5.334 h -5.33909 v -5.334 h -4.83107 v 5.334 h -5.33908 v -5.334 h -4.83108 v 5.334 h -5.33908 v -5.334 h -4.83109 v 5.334 h -5.33907 v -5.334 h -4.83108 v 5.334 h -5.33908 v -5.334 h -4.83108 v 5.334 h -5.33908 v -5.334 h -4.83108 v 5.334 h -8.00354 v -7.58825 h 5.33399 v -4.0005 h -5.33399 v -4.5085 h 5.33399 v -4.0005 h -5.33399 v -4.5085 h 5.33399 v -4.0005 h -5.33399 v -4.5085 h 5.33399 v -4.0005 h -5.33399 v -4.5085 h 5.33399 v -4.0005 h -5.33399 v -4.5085 h 5.33399 v -4.0005 h -5.33399 v -2.25425"
       id="box-longside2-8"
       style="fill:none;stroke:#ff0000;stroke-width:0.25400001;stroke-linecap:butt;stroke-linejoin:miter;stroke-miterlimit:4;stroke-dasharray:none;stroke-opacity:1" />
    <rect
       style="opacity:1;fill:none;fill-opacity:1;stroke:#ff0000;stroke-width:0.25399998;stroke-miterlimit:4;stroke-dasharray:none;stroke-opacity:1"
       id="rect18-6-0-3-3-2-6"
       width="5.0799999"
       height="8.2459993"
       x="-504.5589"
       y="-30.991091" />
    <rect
       style="opacity:1;fill:none;fill-opacity:1;stroke:#ff0000;stroke-width:0.25399998;stroke-miterlimit:4;stroke-dasharray:none;stroke-opacity:1"
       id="rect18-6-0-3-3-7-5-9"
       width="5.0799994"
       height="8.2459993"
       x="-504.5589"
       y="-17.157091" />
    <rect
       style="opacity:1;fill:none;fill-opacity:1;stroke:#ff0000;stroke-width:0.25399998;stroke-miterlimit:4;stroke-dasharray:none;stroke-opacity:1"
       id="rect18-6-0-3-3-7-7-5-5"
       width="5.0799994"
       height="8.2459993"
       x="-504.5589"
       y="-3.3230908" />
    <rect
       style="opacity:1;fill:none;fill-opacity:1;stroke:#ff0000;stroke-width:0.25399998;stroke-miterlimit:4;stroke-dasharray:none;stroke-opacity:1"
       id="rect18-6-0-3-3-2-5-4-5"
       width="5.0799999"
       height="8.2459993"
       x="260.46494"
       y="-30.984102"
       transform="scale(-1,1)" />
    <rect
       style="opacity:1;fill:none;fill-opacity:1;stroke:#ff0000;stroke-width:0.25399998;stroke-miterlimit:4;stroke-dasharray:none;stroke-opacity:1"
       id="rect18-6-0-3-3-7-5-4-3-0"
       width="5.079999"
       height="8.2459993"
       x="260.46494"
       y="-17.150103"
       transform="scale(-1,1)" />
    <rect
       style="opacity:1;fill:none;fill-opacity:1;stroke:#ff0000;stroke-width:0.25399998;stroke-miterlimit:4;stroke-dasharray:none;stroke-opacity:1"
       id="rect18-6-0-3-3-7-7-5-1-0-9"
       width="5.079999"
       height="8.2459993"
       x="260.46494"
       y="-3.3161023"
       transform="scale(-1,1)" />
    <circle
       style="opacity:1;fill:none;fill-opacity:1;stroke:#ff0000;stroke-width:0.25399998;stroke-miterlimit:4;stroke-dasharray:none;stroke-opacity:1"
       id="path5302"
       cx="-476.68704"
       cy="4.3490586"
       r="4.9530001" />
    <circle
       style="opacity:1;fill:none;fill-opacity:1;stroke:#ff0000;stroke-width:0.25399998;stroke-miterlimit:4;stroke-dasharray:none;stroke-opacity:1"
       id="path5302-8"
       cx="-476.73709"
       cy="-24.019625"
       r="4.9530001" />
    <circle
       style="opacity:1;fill:none;fill-opacity:1;stroke:#ff0000;stroke-width:0.25399998;stroke-miterlimit:4;stroke-dasharray:none;stroke-opacity:1"
       id="path5302-0"
       cx="-491.91928"
       cy="-25.199236"
       r="3.937" />
    <circle
       style="opacity:1;fill:none;fill-opacity:1;stroke:#ff0000;stroke-width:0.25399998;stroke-miterlimit:4;stroke-dasharray:none;stroke-opacity:1"
       id="path5302-0-3"
       cx="-491.56476"
       cy="5.3457475"
       r="3.937" />
    <circle
       style="opacity:1;fill:none;fill-opacity:1;stroke:#ff0000;stroke-width:0.25399998;stroke-miterlimit:4;stroke-dasharray:none;stroke-opacity:1"
       id="path5302-8-4"
       cx="-456.67917"
       cy="-24.076891"
       r="4.9530001" />
    <circle
       style="opacity:1;fill:none;fill-opacity:1;stroke:#ff0000;stroke-width:0.25399998;stroke-miterlimit:4;stroke-dasharray:none;stroke-opacity:1"
       id="path5302-8-4-2"
       cx="-456.66159"
       cy="4.3244309"
       r="4.9530001" />
    <circle
       style="opacity:1;fill:none;fill-opacity:1;stroke:#ff0000;stroke-width:0.25399998;stroke-miterlimit:4;stroke-dasharray:none;stroke-opacity:1"
       id="path5302-8-4-20"
       cx="-436.03265"
       cy="-24.043489"
       r="4.9530001" />
    <circle
       style="opacity:1;fill:none;fill-opacity:1;stroke:#ff0000;stroke-width:0.25399998;stroke-miterlimit:4;stroke-dasharray:none;stroke-opacity:1"
       id="path5302-8-4-6"
       cx="-436.01407"
       cy="4.3299546"
       r="4.9530001" />
    <circle
       style="opacity:1;fill:none;fill-opacity:1;stroke:#ff0000;stroke-width:0.25399998;stroke-miterlimit:4;stroke-dasharray:none;stroke-opacity:1"
       id="path5302-8-4-65"
       cx="-415.68674"
       cy="-24.043489"
       r="4.9530001" />
    <circle
       style="opacity:1;fill:none;fill-opacity:1;stroke:#ff0000;stroke-width:0.25399998;stroke-miterlimit:4;stroke-dasharray:none;stroke-opacity:1"
       id="path5302-8-4-201"
       cx="-415.68671"
       cy="4.3371873"
       r="4.9530001" />
    <circle
       style="opacity:1;fill:none;fill-opacity:1;stroke:#ff0000;stroke-width:0.25399998;stroke-miterlimit:4;stroke-dasharray:none;stroke-opacity:1"
       id="path5302-8-4-5"
       cx="-395.37424"
       cy="-24.026781"
       r="4.9530001" />
    <circle
       style="opacity:1;fill:none;fill-opacity:1;stroke:#ff0000;stroke-width:0.25399998;stroke-miterlimit:4;stroke-dasharray:none;stroke-opacity:1"
       id="path5302-8-4-0"
       cx="-395.35754"
       cy="4.3538957"
       r="4.9530001" />
    <circle
       style="opacity:1;fill:none;fill-opacity:1;stroke:#ff0000;stroke-width:0.25399998;stroke-miterlimit:4;stroke-dasharray:none;stroke-opacity:1"
       id="path5302-8-4-4"
       cx="-374.99496"
       cy="-24.026781"
       r="4.9530001" />
    <circle
       style="opacity:1;fill:none;fill-opacity:1;stroke:#ff0000;stroke-width:0.25399998;stroke-miterlimit:4;stroke-dasharray:none;stroke-opacity:1"
       id="path5302-8-4-8"
       cx="-375.01163"
       cy="4.3539109"
       r="4.9530001" />
    <circle
       style="opacity:1;fill:none;fill-opacity:1;stroke:#ff0000;stroke-width:0.25399998;stroke-miterlimit:4;stroke-dasharray:none;stroke-opacity:1"
       id="path5302-8-4-25"
       cx="-354.66577"
       cy="-24.043489"
       r="4.9530001" />
    <circle
       style="opacity:1;fill:none;fill-opacity:1;stroke:#ff0000;stroke-width:0.25399998;stroke-miterlimit:4;stroke-dasharray:none;stroke-opacity:1"
       id="path5302-8-4-9"
       cx="-354.66574"
       cy="4.3538804"
       r="4.9530001" />
    <circle
       style="opacity:1;fill:none;fill-opacity:1;stroke:#ff0000;stroke-width:0.25399998;stroke-miterlimit:4;stroke-dasharray:none;stroke-opacity:1"
       id="path5302-8-4-56"
       cx="-334.33658"
       cy="-24.076891"
       r="4.9530001" />
    <circle
       style="opacity:1;fill:none;fill-opacity:1;stroke:#ff0000;stroke-width:0.25399998;stroke-miterlimit:4;stroke-dasharray:none;stroke-opacity:1"
       id="path5302-8-4-3"
       cx="-334.31985"
       cy="4.3538957"
       r="4.9530001" />
    <circle
       style="opacity:1;fill:none;fill-opacity:1;stroke:#ff0000;stroke-width:0.25399998;stroke-miterlimit:4;stroke-dasharray:none;stroke-opacity:1"
       id="path5302-8-4-28"
       cx="-314.01193"
       cy="-24.041124"
       r="4.9530001" />
    <circle
       style="opacity:1;fill:none;fill-opacity:1;stroke:#ff0000;stroke-width:0.25399998;stroke-miterlimit:4;stroke-dasharray:none;stroke-opacity:1"
       id="path5302-8-4-90"
       cx="-313.99063"
       cy="4.3371873"
       r="4.9530001" />
    <circle
       style="opacity:1;fill:none;fill-opacity:1;stroke:#ff0000;stroke-width:0.25399998;stroke-miterlimit:4;stroke-dasharray:none;stroke-opacity:1"
       id="path5302-8-4-60"
       cx="-292.35934"
       cy="-22.772753"
       r="6.2229996" />
    <circle
       style="opacity:1;fill:none;fill-opacity:1;stroke:#ff0000;stroke-width:0.25399998;stroke-miterlimit:4;stroke-dasharray:none;stroke-opacity:1"
       id="path5302-8-4-60-2"
       cx="-282.59586"
       cy="-0.077759989"
       r="9.3979998" />
    <path
       inkscape:connector-curvature="0"
       d="m -509.6389,79.03926 h 2.41553 v 5.334 h 5.33909 v -5.334 h 4.83107 v 5.334 h 5.33909 v -5.334 h 4.83108 v 5.334 h 5.33907 v -5.334 h 4.83109 v 5.334 h 5.33907 v -5.334 h 4.83109 v 5.334 h 5.33908 v -5.334 h 4.83108 v 5.334 h 5.33908 v -5.334 h 4.83108 v 5.334 h 5.33908 v -5.334 h 4.83108 v 5.334 h 5.33907 v -5.334 h 4.83109 v 5.334 h 5.33907 v -5.334 h 4.83108 v 5.334 h 5.33908 v -5.334 h 4.83108 v 5.334 h 5.33908 v -5.334 h 4.83108 v 5.334 h 5.33909 v -5.334 h 4.83107 v 5.334 h 5.33908 v -5.334 h 4.83109 v 5.334 h 5.33907 v -5.334 h 4.83109 v 5.334 h 5.33907 v -5.334 h 4.83108 v 5.334 h 5.33909 v -5.334 h 4.83108 v 5.334 h 5.33908 v -5.334 h 4.83108 v 5.334 h 5.33908 v -5.334 h 4.83108 v 5.334 h 5.33908 v -5.334 h 4.83108 v 5.334 h 5.33908 v -5.334 h 4.83108 v 5.334 h 5.33908 v -5.334 h 4.83108 v 5.334 h 5.33908 v -5.334 h 4.83108 v 5.334 h 5.33908 v -5.334 h 4.83108 v 5.334 h 5.33908 v -5.334 h 4.83108 v 5.334 h 5.33908 v -5.334 h 2.41554 v -2.00025 h 5.334 v -4.5085 h -5.334 v -4.0005 h 5.334 v -4.5085 h -5.334 v -4.0005 h 5.334 v -4.5085 h -5.334 v -4.0005 h 5.334 v -4.5085 h -5.334 v -4.0005 h 5.334 v -4.5085 h -5.334 v -4.0005 h 5.334 v -4.5085 h -5.334 v -2.00025 h -2.41554 v -5.334 h -5.33908 v 5.334 h -4.83108 v -5.334 h -5.33908 v 5.334 h -4.83108 v -5.334 h -5.33908 v 5.334 h -4.83108 v -5.334 H -293.65 v 5.334 h -4.83108 v -5.334 h -5.33908 v 5.334 h -4.83108 v -5.334 h -5.33908 v 5.334 h -4.83108 v -5.334 h -5.33908 v 5.334 h -4.83108 v -5.334 h -5.33908 v 5.334 h -4.83108 v -5.334 h -5.33908 v 5.334 h -4.83108 v -5.334 h -5.33908 v 5.334 h -4.83108 v -5.334 h -5.33908 v 5.334 h -4.83108 v -5.334 h -5.33908 v 5.334 h -4.83108 v -5.334 h -5.33908 v 5.334 h -4.83108 v -5.334 h -5.33908 v 5.334 h -4.83108 v -5.334 h -5.33908 v 5.334 h -4.83108 v -5.334 h -5.33908 v 5.334 h -4.83108 v -5.334 h -5.33908 v 5.334 h -4.83108 v -5.334 h -5.33908 v 5.334 h -4.83108 v -5.334 h -5.33908 v 5.334 h -4.83108 v -5.334 h -5.33908 v 5.334 h -4.83108 v -5.334 h -5.33909 v 5.334 h -4.83108 v -5.334 h -5.33907 v 5.334 h -4.83109 v -5.334 h -5.33907 v 5.334 h -4.83109 v -5.334 h -5.33908 v 5.334 h -4.83107 v -5.334 h -5.33909 v 5.334 h -2.41554 v 2.00025 h -5.334 v 4.5085 h 5.33401 v 4.0005 h -5.33401 v 4.5085 h 5.33401 v 4.0005 h -5.33401 v 4.5085 h 5.33401 v 4.0005 h -5.33401 v 4.5085 h 5.33401 v 4.0005 h -5.33401 v 4.5085 h 5.33401 v 4.0005 h -5.33401 v 4.5085 h 5.33401 v 2.00025"
       id="box-base-7"
       style="fill:none;stroke:#ff0000;stroke-width:0.25400001;stroke-linecap:butt;stroke-linejoin:miter;stroke-miterlimit:4;stroke-dasharray:none;stroke-opacity:1" />
    <rect
       style="opacity:1;fill:none;fill-opacity:1;stroke:#ff0000;stroke-width:0.25399998;stroke-miterlimit:4;stroke-dasharray:none;stroke-opacity:1"
       id="rect18-6-0-3-3-9-1-9-9"
       width="5.0799994"
       height="8.2459993"
       x="-504.55893"
       y="-68.036224"
       transform="scale(1,-1)" />
    <rect
       style="opacity:1;fill:none;fill-opacity:1;stroke:#ff0000;stroke-width:0.25399998;stroke-miterlimit:4;stroke-dasharray:none;stroke-opacity:1"
       id="rect18-6-0-3-3-7-6-3-5-1"
       width="5.0799994"
       height="8.2459993"
       x="-504.5589"
       y="-54.202209"
       transform="scale(1,-1)" />
    <rect
       style="opacity:1;fill:none;fill-opacity:1;stroke:#ff0000;stroke-width:0.25399998;stroke-miterlimit:4;stroke-dasharray:none;stroke-opacity:1"
       id="rect18-6-0-3-3-7-7-6-6-1-6"
       width="5.0799994"
       height="8.2459993"
       x="-504.5589"
       y="-40.368225"
       transform="scale(1,-1)" />
    <rect
       style="opacity:1;fill:none;fill-opacity:1;stroke:#ff0000;stroke-width:0.25399998;stroke-miterlimit:4;stroke-dasharray:none;stroke-opacity:1"
       id="rect18-6-0-3-3-9-1-6-1"
       width="5.0799994"
       height="8.2459993"
       x="260.4649"
       y="-68.027046"
       transform="scale(-1)" />
    <rect
       style="opacity:1;fill:none;fill-opacity:1;stroke:#ff0000;stroke-width:0.25399998;stroke-miterlimit:4;stroke-dasharray:none;stroke-opacity:1"
       id="rect18-6-0-3-3-7-6-3-8-6"
       width="5.0799994"
       height="8.2459993"
       x="260.4649"
       y="-54.193062"
       transform="scale(-1)" />
    <rect
       style="opacity:1;fill:none;fill-opacity:1;stroke:#ff0000;stroke-width:0.25399998;stroke-miterlimit:4;stroke-dasharray:none;stroke-opacity:1"
       id="rect18-6-0-3-3-7-7-6-6-6-9"
       width="5.0799994"
       height="8.2459993"
       x="260.4649"
       y="-40.359047"
       transform="scale(-1)" />
    <circle
       style="opacity:1;fill:none;fill-opacity:1;stroke:#ff0000;stroke-width:0.25399998;stroke-miterlimit:4;stroke-dasharray:none;stroke-opacity:1"
       id="path5302-0-5"
       cx="-483.34808"
       cy="-53.503693"
       r="1.4605"
       transform="scale(1,-1)" />
    <circle
       style="opacity:1;fill:none;fill-opacity:1;stroke:#ff0000;stroke-width:0.25399998;stroke-miterlimit:4;stroke-dasharray:none;stroke-opacity:1"
       id="path5302-0-5-1"
       cx="-281.67572"
       cy="-53.521179"
       r="1.4605"
       transform="scale(1,-1)" />
    <path
       style="opacity:1;fill:none;fill-opacity:1;stroke:#ff0000;stroke-width:0.25399998;stroke-miterlimit:4;stroke-dasharray:none;stroke-opacity:1"
       d="m -469.46096,97.532044 9e-5,-5.4616 9e-5,-5.33392 -8.76301,-1.4e-4 -8e-5,5.33394 -5.07019,-7e-5 9e-5,-5.33482 -8.76302,-1.4e-4 -7e-5,5.33481 -5.06939,-7e-5 0.0165,-0.85365 7e-5,-4.48078 -8.763,-1.2e-4 -8e-5,5.3344 -3.76535,-7e-5 -6e-5,3.76535 -5.33439,-7e-5 -1.4e-4,8.762986 4.48077,1e-4 0.85362,-0.0165 -8e-5,5.06946 -5.33478,-9e-5 -1.4e-4,8.76301 5.33478,8e-5 -7e-5,5.07019 -5.33393,-7e-5 -1.3e-4,8.76299 5.33391,8e-5 5.46158,1e-4 z"
       id="rect880-7-1-8-6-1-3-5-3-9-2-5"
       inkscape:connector-curvature="0"
       sodipodi:nodetypes="ccccccccccccccccccccccccccccc" />
    <path
       style="opacity:1;fill:none;fill-opacity:1;stroke:#ff0000;stroke-width:0.25399998;stroke-miterlimit:4;stroke-dasharray:none;stroke-opacity:1"
       d="m -455.9522,86.73543 h 5.46159 5.33393 v 8.762999 h -5.33393 v 5.070191 h 5.33479 v 8.763 h -5.33479 v 5.0694 l 0.85363,-0.0165 h 4.48077 v 8.763 h -5.3344 v 3.76535 h -3.76536 v 5.33439 h -8.76299 v -4.48075 l 0.0165,-0.85364 h -5.06945 v 5.33479 h -8.763 v -5.33479 h -5.0702 v 5.33393 h -8.763 v -5.33393 -5.46158 z"
       id="rect880-7-1-8-6-1-3-5-3-9-2-5-8"
       inkscape:connector-curvature="0"
       sodipodi:nodetypes="ccccccccccccccccccccccccccccc" />
  </g>
</svg>
